<svg width="188" height="32" viewBox="0 0 188 32" fill="none" xmlns="http://www.w3.org/2000/svg">
<path d="M184.889 28.9023C186.881 26.9188 188 24.2287 188 21.4237H184.737C184.737 23.367 183.962 25.2307 182.582 26.6048C181.202 27.9789 179.331 28.7508 177.38 28.7508C175.428 28.7508 173.557 27.9789 172.177 26.6048C170.797 25.2307 170.022 23.367 170.022 21.4237L170.023 18.1695H178.914V14.9152H170.025L170.027 10.8475H166.759V21.4237C166.759 24.2287 167.878 26.9188 169.87 28.9023C171.861 30.8857 174.563 32 177.38 32C180.196 32 182.898 30.8857 184.889 28.9023Z" fill="#87A8CB"/>
<path d="M143.603 17.3764C143.07 18.6595 142.795 20.0348 142.795 21.4237V32H146.063L146.058 21.4237C146.058 20.4615 146.248 19.5087 146.618 18.6198C146.987 17.7308 147.529 16.9231 148.213 16.2427C148.896 15.5623 149.707 15.0226 150.6 14.6544C151.492 14.2861 152.449 14.0966 153.415 14.0966C154.382 14.0966 155.338 14.2861 156.231 14.6544C157.124 15.0226 157.935 15.5623 158.618 16.2427C159.301 16.9231 159.843 17.7308 160.213 18.6198C160.583 19.5087 160.773 20.4615 160.773 21.4237L160.768 32H164.036V21.4237C164.036 20.0348 163.761 18.6595 163.227 17.3764C162.694 16.0932 161.911 14.9273 160.925 13.9452C159.939 12.9631 158.768 12.184 157.48 11.6525C156.191 11.121 154.81 10.8475 153.415 10.8475C152.021 10.8475 150.64 11.121 149.351 11.6525C148.062 12.184 146.892 12.9631 145.905 13.9452C144.919 14.9273 144.137 16.0932 143.603 17.3764Z" fill="#87A8CB"/>
<path d="M13.0714 31.7288H16.3392V3.25424H26.1428C27.0094 3.25424 27.8406 2.91138 28.4535 2.30109C29.0663 1.69081 29.4106 0.863078 29.4106 1.23817e-06L26.1428 4.00871e-07L3.26784 7.20927e-07C2.40116 7.96379e-07 1.56997 0.342856 0.95713 0.953144C0.34429 1.56343 -7.57679e-08 2.39116 0 3.25424L3.26784 3.25424L13.0714 3.25424V31.7288Z" fill="#87A8CB"/>
<path fill-rule="evenodd" clip-rule="evenodd" d="M135.658 30.1946C133.693 31.5134 131.341 32.1397 128.977 31.9738C126.613 31.8079 124.372 30.8593 122.612 29.279C120.852 27.6987 119.673 25.5775 119.263 23.253C118.853 20.9284 119.236 18.5341 120.35 16.4512C121.464 14.3682 123.246 12.7162 125.412 11.7581C127.578 10.8 130.003 10.5909 132.302 11.164C134.601 11.7371 136.642 13.0595 138.099 14.9208C139.556 16.7821 140.347 19.0752 140.344 21.4353L137.103 21.4318L122.344 21.4237C122.344 21.8475 122.381 22.2728 122.455 22.6947C122.74 24.3098 123.559 25.7837 124.782 26.8817C126.005 27.9797 127.562 28.6388 129.205 28.7541C130.847 28.8694 132.481 28.4342 133.847 27.5179L135.658 30.1946ZM131.515 14.2951C133.113 14.6933 134.531 15.6122 135.543 16.9054C135.853 17.3011 136.119 17.7249 136.34 18.1695H123.107C123.141 18.1021 123.175 18.0352 123.211 17.9687C123.985 16.5214 125.223 15.3736 126.728 14.7079C128.233 14.0422 129.918 13.8969 131.515 14.2951Z" fill="#87A8CB"/>
<path fill-rule="evenodd" clip-rule="evenodd" d="M95.8483 6.80009C95.3145 8.08326 95.0398 9.45856 95.0398 10.8475V21.4237V32H98.3077L98.3062 29.0542C100.282 30.9425 102.916 32 105.66 32C108.477 32 111.178 30.8857 113.17 28.9023C115.162 26.9188 116.281 24.2287 116.281 21.4237C116.281 20.0348 116.006 18.6595 115.472 17.3764C115.295 16.9489 115.089 16.5345 114.858 16.1356C115.089 15.7366 115.295 15.3222 115.472 14.8948C116.006 13.6116 116.281 12.2364 116.281 10.8475C116.281 9.45856 116.006 8.08327 115.472 6.80009C114.939 5.51692 114.156 4.351 113.17 3.36891C112.184 2.38681 111.013 1.60777 109.725 1.07626C108.436 0.54475 107.055 0.271187 105.66 0.271187C104.266 0.271187 102.885 0.54475 101.596 1.07626C100.307 1.60776 99.1367 2.38681 98.1505 3.3689C97.1643 4.351 96.382 5.51692 95.8483 6.80009ZM108.476 14.6544C107.583 14.2861 106.627 14.0966 105.66 14.0966C105.391 14.0966 105.261 14.1475 105.012 14.25C104.764 14.3526 104.538 14.5029 104.347 14.6925C104.157 14.882 104.006 15.107 103.903 15.3546C103.8 15.6022 103.747 15.8676 103.747 16.1356C103.747 16.4036 103.8 16.669 103.903 16.9166C104.006 17.1642 104.157 17.3892 104.347 17.5787C104.538 17.7682 104.764 17.9186 105.012 18.0211C105.261 18.1237 105.391 18.1746 105.66 18.1746C106.627 18.1746 107.583 17.985 108.476 17.6168C109.321 17.2681 110.093 16.7657 110.753 16.1356C110.093 15.5055 109.321 15.0031 108.476 14.6544ZM112.458 8.0435C112.828 8.93246 113.018 9.88525 113.018 10.8475C113.018 11.7144 112.864 12.5737 112.563 13.3855C111.715 12.664 110.758 12.0787 109.725 11.6525C108.436 11.121 107.055 10.8475 105.66 10.8475C104.963 10.8475 104.409 10.9842 103.764 11.25C103.12 11.5157 102.535 11.9053 102.042 12.3963C101.548 12.8874 101.157 13.4703 100.89 14.1119C100.624 14.7535 100.486 15.4411 100.486 16.1356C100.486 16.83 100.624 17.5177 100.89 18.1593C101.157 18.8009 101.548 19.3838 102.042 19.8749C102.535 20.3659 103.12 20.7554 103.764 21.0212C104.409 21.2869 104.963 21.4237 105.66 21.4237C107.055 21.4237 108.436 21.1502 109.725 20.6187C110.758 20.1925 111.715 19.6072 112.563 18.8857C112.864 19.6975 113.018 20.5568 113.018 21.4237C113.018 23.367 112.243 25.2307 110.863 26.6048C109.483 27.9789 107.612 28.7508 105.66 28.7508C103.709 28.7508 101.837 27.9789 100.458 26.6048C99.0778 25.2307 98.3026 23.367 98.3026 21.4237L98.3077 10.8475C98.3077 9.88525 98.4929 8.93246 98.8626 8.0435C99.2324 7.15453 99.7744 6.3468 100.458 5.66641C101.141 4.98603 101.952 4.44632 102.845 4.0781C103.737 3.70988 104.694 3.52036 105.66 3.52036C106.627 3.52036 107.583 3.70988 108.476 4.0781C109.369 4.44632 110.18 4.98603 110.863 5.66642C111.546 6.3468 112.088 7.15453 112.458 8.0435Z" fill="#87A8CB"/>
<path fill-rule="evenodd" clip-rule="evenodd" d="M87.4575 30.1946C85.4921 31.5134 83.1402 32.1397 80.7761 31.9738C78.412 31.8079 76.1715 30.8593 74.4113 29.279C72.6511 27.6987 71.4722 25.5775 71.0623 23.253C70.6524 20.9284 71.035 18.5341 72.1493 16.4512C73.2635 14.3682 75.0454 12.7162 77.2113 11.7581C79.3772 10.8 81.8027 10.5909 84.1017 11.164C86.4008 11.7371 88.4412 13.0595 89.8984 14.9208C91.3556 16.7821 92.1458 19.0752 92.1432 21.4353L90.7816 21.4237H74.1434C74.1434 21.8475 74.1802 22.2728 74.2546 22.6947C74.5394 24.3098 75.3586 25.7837 76.5816 26.8817C77.8046 27.9797 79.3613 28.6388 81.004 28.7541C82.6466 28.8694 84.2807 28.4342 85.6463 27.5179L87.4575 30.1946ZM83.3147 14.2951C84.9121 14.6933 86.3298 15.6122 87.3423 16.9054C87.6521 17.3011 87.9185 17.7249 88.139 18.1695H74.9064C74.9399 18.1021 74.9743 18.0352 75.0099 17.9687C75.7841 16.5214 77.0222 15.3736 78.5271 14.7079C80.032 14.0422 81.7173 13.8969 83.3147 14.2951Z" fill="#87A8CB"/>
<path fill-rule="evenodd" clip-rule="evenodd" d="M40.13 21.1525C40.13 19.7636 40.4047 18.3883 40.9385 17.1052C41.4722 15.822 42.2545 14.6561 43.2407 13.674C44.2269 12.6919 45.3977 11.9128 46.6862 11.3813C47.9748 10.8498 49.3558 10.5763 50.7505 10.5763C51.9097 10.5763 53.0595 10.7652 54.1545 11.1342C55.2496 10.7652 56.3993 10.5763 57.5585 10.5763C58.9532 10.5763 60.3343 10.8498 61.6228 11.3813C62.9114 11.9128 64.0822 12.6919 65.0684 13.674C66.0546 14.6561 66.8369 15.822 67.3706 17.1052C67.9043 18.3883 68.179 19.7636 68.179 21.1525V31.7288H64.9112L64.9163 21.1525C64.9163 20.1903 64.726 19.2375 64.3562 18.3486C63.9864 17.4596 63.4445 16.6519 62.7612 15.9715C62.078 15.2911 61.2669 14.7514 60.3742 14.3832C59.7613 14.1304 59.1182 13.9618 58.4626 13.881C59.3539 14.8184 60.0659 15.911 60.5626 17.1052C61.0868 18.3655 61.3611 19.7146 61.3708 21.0782C61.3629 22.0011 61.1765 22.9141 60.8217 23.7671C60.459 24.639 59.9275 25.4312 59.2574 26.0985C58.5872 26.7659 57.7917 27.2952 56.9161 27.6564C56.0406 28.0175 55.1022 28.2034 54.1545 28.2034C53.2068 28.2034 52.2684 28.0175 51.3929 27.6563C50.5173 27.2952 49.7218 26.7658 49.0517 26.0985C48.3816 25.4312 47.85 24.639 47.4874 23.7671C47.1325 22.914 46.9462 22.0011 46.9383 21.0782C46.9479 19.7146 47.2223 18.3655 47.7465 17.1052C48.2432 15.911 48.9552 14.8184 49.8465 13.881C49.1908 13.9618 48.5477 14.1304 47.9348 14.3832C47.0422 14.7514 46.231 15.2911 45.5478 15.9715C44.8646 16.6519 44.3226 17.4596 43.9529 18.3486C43.5831 19.2375 43.3928 20.1903 43.3928 21.1525L43.3979 31.7288H40.13V21.1525ZM57.5482 18.3486C57.9077 19.2128 58.0975 20.1374 58.1078 21.0723C58.1008 21.5705 57.9988 22.063 57.8072 22.5237C57.6086 23.0013 57.3173 23.4354 56.9502 23.801C56.5831 24.1666 56.1472 24.4566 55.6675 24.6545C55.1878 24.8523 54.6737 24.9542 54.1545 24.9542C53.6353 24.9542 53.1212 24.8523 52.6415 24.6545C52.1618 24.4566 51.726 24.1666 51.3588 23.801C50.9917 23.4354 50.7005 23.0013 50.5018 22.5236C50.3102 22.063 50.2083 21.5705 50.2012 21.0723C50.2115 20.1374 50.4014 19.2128 50.7609 18.3486C51.1306 17.4596 51.6726 16.6519 52.3558 15.9715C52.8857 15.4438 53.4924 15.0008 54.1545 14.6567C54.8166 15.0008 55.4234 15.4438 55.9532 15.9715C56.6365 16.6519 57.1784 17.4596 57.5482 18.3486Z" fill="#87A8CB"/>
<path fill-rule="evenodd" clip-rule="evenodd" d="M29.4106 31.7288H32.6784V17.2721C32.7601 17.2012 32.8395 17.1274 32.9166 17.0507C33.7927 16.1782 34.2925 15.0009 34.3118 13.7691C34.3041 13.3627 34.22 12.9611 34.0636 12.5852C33.8994 12.1903 33.6587 11.8316 33.3552 11.5294C33.0518 11.2272 32.6916 10.9875 32.2951 10.824C31.8986 10.6604 31.4737 10.5763 31.0445 10.5763C30.6154 10.5763 30.1905 10.6604 29.794 10.824C29.3975 10.9875 29.0373 11.2272 28.7338 11.5294C28.4304 11.8316 28.1897 12.1903 28.0254 12.5852C27.8691 12.9611 27.785 13.3626 27.7773 13.7691C27.7866 14.3671 27.9095 14.9581 28.1394 15.511C28.3789 16.0868 28.73 16.61 29.1725 17.0507C29.2494 17.1273 29.3288 17.2011 29.4106 17.2721V31.7288ZM29.4921 14.9531C29.3261 14.5542 29.2594 14.1267 29.2594 13.6949C29.2594 13.4634 29.2996 13.3667 29.3875 13.1553L29.3905 13.1482C29.4804 12.9319 29.6123 12.7354 29.7786 12.5698C29.9448 12.4043 30.1422 12.2729 30.3594 12.1833C30.5766 12.0937 30.8094 12.0476 31.0445 12.0476C31.2796 12.0476 31.5124 12.0937 31.7297 12.1833C31.9469 12.2729 32.1442 12.4043 32.3105 12.5698C32.4767 12.7354 32.6086 12.9319 32.6986 13.1482C32.7124 13.1813 32.7254 13.2116 32.7377 13.2401C32.8055 13.3972 32.8483 13.4966 32.8483 13.6949C32.8483 14.5669 32.5005 15.4032 31.8813 16.0197C31.6337 16.2663 31.3509 16.4696 31.0445 16.6249C30.7359 16.4685 30.4534 16.2644 30.2077 16.0197C29.9012 15.7144 29.658 15.352 29.4921 14.9531Z" fill="#87A8CB"/>
</svg>
