<svg width="30" height="30" viewBox="0 0 30 30" fill="none" xmlns="http://www.w3.org/2000/svg">
<path d="M9.66666 7H11.6667C13.1394 7 14.3333 8.19391 14.3333 9.66666V11.6667C14.3333 13.1394 13.1394 14.3333 11.6667 14.3333H9.66666C8.19391 14.3333 7 13.1394 7 11.6667V9.66666C7 8.19391 8.19391 7 9.66666 7Z" fill="#9B9CA6"/>
<path d="M18.3332 7H20.3332C21.8059 7 22.9998 8.19391 22.9998 9.66666V11.6667C22.9998 13.1394 21.8059 14.3333 20.3332 14.3333H18.3332C16.8604 14.3333 15.6665 13.1394 15.6665 11.6667V9.66666C15.6665 8.19391 16.8604 7 18.3332 7Z" fill="#9B9CA6"/>
<path d="M9.66666 15.667H11.6667C13.1394 15.667 14.3333 16.8609 14.3333 18.3336V20.3336C14.3333 21.8064 13.1394 23.0003 11.6667 23.0003H9.66666C8.19391 23.0003 7 21.8064 7 20.3337V18.3337C7 16.8609 8.19391 15.667 9.66666 15.667Z" fill="#9B9CA6"/>
<path d="M18.3332 15.667H20.3332C21.8059 15.667 22.9998 16.8609 22.9998 18.3336V20.3336C22.9998 21.8064 21.8059 23.0003 20.3332 23.0003H18.3332C16.8604 23.0003 15.6665 21.8064 15.6665 20.3337V18.3337C15.6665 16.8609 16.8604 15.667 18.3332 15.667Z" fill="#9B9CA6"/>
</svg>
