<svg width="240" height="239" viewBox="0 0 240 239" fill="none" xmlns="http://www.w3.org/2000/svg">
<path d="M218.518 102.054C219.284 138.069 161.324 224.271 124.194 222.282C87.063 220.293 36.0627 73.7586 68.0329 42.5539C100.003 11.3492 217.752 66.0387 218.518 102.054Z" fill="#5D5FEF"/>
<path d="M200.116 120.261C200.635 146.177 158.885 208.26 132.189 206.861C105.493 205.462 68.9515 100.06 91.9662 77.577C114.981 55.0939 199.597 94.3455 200.116 120.261Z" fill="#7879F1"/>
<path d="M188.913 124.699C189.307 145.248 156.18 194.502 135.025 193.41C113.87 192.318 84.9813 108.768 103.235 90.9255C121.488 73.0832 188.519 104.15 188.913 124.699Z" fill="#A5A6F6"/>
</svg>
