<svg width="140" height="261" viewBox="0 0 140 261" fill="none" xmlns="http://www.w3.org/2000/svg">
<path d="M10.0414 90.0394C22.3615 63.6495 45.2456 22.5422 74.3544 6.07548C132.293 -26.7002 141.646 79.5786 139.786 170.471C138.923 212.663 87.3627 227.588 61.6719 194.108L15.6754 134.167C5.90989 121.44 3.25556 104.575 10.0414 90.0394Z" fill="#5D5FEF"/>
<path d="M31.1963 95.0005C41.9927 72.593 60.7128 40.4439 84.2012 27.162C129.789 1.38373 139.99 76.8449 140 149.46C140.006 191.656 88.5448 206.625 62.8507 173.155L36.6856 139.071C26.9142 126.342 24.2309 109.457 31.1963 95.0005Z" fill="#7879F1"/>
<path d="M58.5808 100.777C67.1741 84.1105 80.5262 63.1669 96.8614 53.9724C126.561 37.2557 136.834 75.8624 139.335 121.862C141.624 163.932 89.6467 178.368 63.9164 145.006C54.0787 132.25 51.1985 115.095 58.5808 100.777Z" fill="#A5A6F6"/>
</svg>
