<svg width="645" height="375" viewBox="0 0 645 375" fill="none" xmlns="http://www.w3.org/2000/svg">
<path d="M634.593 204.613C614.575 273.473 436.741 331.381 297.411 290.877C158.081 250.372 18.8254 139.66 38.8439 70.7994C58.8624 1.93887 188.402 60.4367 327.732 100.941C467.062 141.446 654.612 135.752 634.593 204.613Z" fill="#5D5FEF"/>
<path d="M556.76 204.821C542.048 255.428 411.354 297.986 308.958 268.218C206.562 238.45 104.221 157.086 118.933 106.479C133.645 55.8722 228.845 98.8633 331.242 128.631C433.638 158.399 571.472 154.214 556.76 204.821Z" fill="#7879F1"/>
<path d="M496.712 203.693C485.491 242.291 385.809 274.751 307.709 252.047C229.61 229.342 151.553 167.284 162.774 128.686C173.995 90.0868 246.606 122.877 324.705 145.581C402.805 168.285 507.933 165.094 496.712 203.693Z" fill="#A5A6F6"/>
</svg>
