<svg width="367" height="520" viewBox="0 0 367 520" fill="none" xmlns="http://www.w3.org/2000/svg">
<path d="M66.9829 222.684L39.5941 188.398C19.8944 163.737 29.6191 127.053 58.9486 115.39L264.633 33.5967C295.492 21.3248 329 44.0598 329 77.2702V401.078C329 409.828 321.907 416.92 313.158 416.92C309.806 416.92 306.54 417.984 303.831 419.957L217 483.203C191.714 501.621 155.828 490.659 145.151 461.255L131.135 422.658C127.272 412.018 119.698 403.129 109.806 397.627L67.5877 374.141C44.0756 361.062 36.321 330.952 50.5903 308.142L70.1065 276.945C80.6889 260.029 79.4366 238.274 66.9829 222.684Z" fill="#5D5FEF"/>
<path d="M111.081 199.402L93.6482 177.599C73.9279 152.935 83.6563 116.229 113.003 104.569L281.646 37.5676C312.504 25.3078 346 48.0424 346 81.2465V346.092C346 360.623 332.413 371.332 318.283 367.936C310.817 366.142 302.951 368.285 297.427 373.619L253.846 415.703C229.364 439.344 188.651 429.934 177.025 397.948L171.067 381.554C167.2 370.914 159.622 362.027 149.726 356.527L118.894 339.392C95.3634 326.314 87.6039 296.183 101.891 273.367L114.208 253.696C124.805 236.771 123.551 214.998 111.081 199.402Z" fill="#7879F1"/>
<path d="M152.27 172.816L138.745 155.928C118.988 131.259 128.722 94.5117 158.101 82.8588L302.671 25.5158C333.525 13.2776 367 36.0118 367 69.2045V302.88C367 317.853 353.003 328.889 338.442 325.396C333.339 324.171 327.971 324.717 323.218 326.943L263.878 354.739C246.775 362.75 226.396 357.635 215.105 342.495C206.378 330.793 191.932 324.812 177.486 326.908C146.132 331.458 122.224 299.384 135.583 270.657L158.203 222.014C165.733 205.82 163.435 186.757 152.27 172.816Z" fill="#A5A6F6"/>
</svg>
