<svg width="516" height="515" viewBox="0 0 516 515" fill="none" xmlns="http://www.w3.org/2000/svg">
<path d="M148.231 161.402C200.342 109.282 153.729 -51.1343 237.759 32.8813C321.789 116.897 402.638 422.492 350.527 474.612C298.417 526.732 290.055 491.912 206.026 407.897C121.996 323.881 96.1202 213.522 148.231 161.402Z" fill="url(#paint0_linear_101_804)"/>
<path d="M165.032 166.722C209.324 122.422 169.705 -13.9242 241.127 57.4851C312.548 128.894 381.266 388.636 336.974 432.935C292.682 477.235 285.576 447.64 214.154 376.23C142.733 304.821 120.74 211.021 165.032 166.722Z" fill="#7879F1"/>
<path d="M196.758 158.565C229.353 125.964 204.18 53.6641 256.74 106.215C309.299 158.766 359.87 349.912 327.275 382.512C294.68 415.113 249.318 317.983 196.758 265.432C144.199 212.881 164.163 191.165 196.758 158.565Z" fill="#A5A6F6"/>
<defs>
<linearGradient id="paint0_linear_101_804" x1="155.073" y1="359.954" x2="359.945" y2="155.046" gradientUnits="userSpaceOnUse">
<stop stop-color="#5D5FEF"/>
<stop offset="1" stop-color="#4B4EE2"/>
</linearGradient>
</defs>
</svg>
