<svg width="168" height="174" viewBox="0 0 168 174" fill="none" xmlns="http://www.w3.org/2000/svg">
<path d="M155.612 157.165C126.862 178.871 23.0446 182.348 2.91968 151.081C-17.2053 119.814 71.7352 -7.31918 115.75 0.331147C159.765 7.98147 184.362 135.46 155.612 157.165Z" fill="#5D5FEF"/>
<path d="M130.078 152.906C109.371 168.499 34.5976 170.997 20.1029 148.535C5.60812 126.074 69.6664 34.742 101.367 40.2379C133.069 45.7338 150.784 137.313 130.078 152.906Z" fill="#7879F1"/>
<path d="M119.921 146.422C103.493 158.771 44.1683 160.75 32.6684 142.96C21.1684 125.17 71.9915 52.8356 97.1428 57.1884C122.294 61.5412 136.35 134.072 119.921 146.422Z" fill="#A5A6F6"/>
</svg>
