<svg width="540" height="592" viewBox="0 0 540 592" fill="none" xmlns="http://www.w3.org/2000/svg">
<path d="M145.809 203.1C218.73 109.162 453.081 93.7028 513.731 140.783C574.38 187.863 413.192 256.329 340.27 350.268C267.349 444.206 191.926 581.209 131.276 534.129C70.6265 487.049 72.8877 297.039 145.809 203.1Z" fill="#5D5FEF"/>
<path d="M148.405 219.735C207.083 144.145 395.658 131.706 444.461 169.59C493.265 207.474 363.56 262.567 304.883 338.156C246.205 413.746 185.514 523.988 136.711 486.104C87.9078 448.22 89.7273 295.325 148.405 219.735Z" fill="#7879F1"/>
<path d="M276.611 340.936C214.161 393.493 156.949 442.214 134.798 415.894C112.647 389.573 173.261 236.294 235.711 183.737C298.161 131.181 338.798 199.249 360.949 225.57C383.099 251.89 339.061 288.38 276.611 340.936Z" fill="#A5A6F6"/>
</svg>
