<svg width="216" height="39" viewBox="0 0 216 39" fill="none" xmlns="http://www.w3.org/2000/svg">
<g filter="url(#filter0_d_119_736)">
<path d="M195 2.5308L197.031 0.5L211.923 15.3925L209.893 17.4233L195 2.5308Z" fill="#F9F5F5"/>
<path d="M197.031 30.285L195 28.2542L209.893 13.3617L211.923 15.3925L197.031 30.285Z" fill="#F9F5F5"/>
<path d="M173 16.87L173 14L208 14V16.87H173Z" fill="#F9F5F5"/>
</g>
<g filter="url(#filter1_d_119_736)">
<path d="M4.01789 23V6.27273H6.54168V13.5419H14.8808V6.27273H17.4128V23H14.8808V15.7063H6.54168V23H4.01789ZM26.2991 23.2532C25.0631 23.2532 23.9986 22.9891 23.1056 22.4609C22.2181 21.9273 21.532 21.1786 21.0474 20.2148C20.5682 19.2456 20.3286 18.1103 20.3286 16.8089C20.3286 15.5239 20.5682 14.3913 21.0474 13.4112C21.532 12.4311 22.2072 11.6661 23.0729 11.1161C23.9441 10.5662 24.9624 10.2912 26.1276 10.2912C26.8355 10.2912 27.5216 10.4083 28.1859 10.6424C28.8502 10.8765 29.4464 11.2441 29.9746 11.745C30.5027 12.246 30.9193 12.8967 31.2242 13.6971C31.5291 14.4921 31.6816 15.4586 31.6816 16.5966V17.4624H21.7089V15.6328H29.2885C29.2885 14.9903 29.1578 14.4213 28.8964 13.9258C28.6351 13.4248 28.2675 13.0301 27.7938 12.7415C27.3255 12.4529 26.7756 12.3086 26.144 12.3086C25.4579 12.3086 24.8589 12.4774 24.3471 12.815C23.8407 13.1471 23.4486 13.5827 23.1709 14.1218C22.8987 14.6554 22.7626 15.2353 22.7626 15.8615V17.2908C22.7626 18.1294 22.9096 18.8427 23.2036 19.4308C23.5031 20.0188 23.9196 20.468 24.4533 20.7784C24.9869 21.0833 25.6103 21.2358 26.3236 21.2358C26.7865 21.2358 27.2085 21.1705 27.5896 21.0398C27.9708 20.9036 28.3002 20.7022 28.5779 20.4354C28.8556 20.1686 29.068 19.8391 29.215 19.4471L31.5264 19.8636C31.3413 20.5443 31.0091 21.1405 30.53 21.6523C30.0562 22.1587 29.46 22.5535 28.7413 22.8366C28.028 23.1143 27.2139 23.2532 26.2991 23.2532ZM33.2845 12.5618V10.4545H43.8697V12.5618H39.7777V23H37.3928V12.5618H33.2845ZM56.1906 23.2777C55.3956 23.2777 54.6768 23.1307 54.0343 22.8366C53.3918 22.5372 52.8827 22.1043 52.507 21.538C52.1367 20.9717 51.9516 20.2775 51.9516 19.4553C51.9516 18.7474 52.0877 18.1648 52.36 17.7074C52.6322 17.25 52.9997 16.8879 53.4626 16.6211C53.9254 16.3543 54.4427 16.1528 55.0144 16.0167C55.5862 15.8806 56.1688 15.7771 56.7623 15.7063C57.5137 15.6192 58.1236 15.5484 58.5918 15.494C59.0601 15.4341 59.4004 15.3388 59.6128 15.2081C59.8252 15.0774 59.9313 14.8651 59.9313 14.571V14.5138C59.9313 13.8005 59.7299 13.2479 59.3269 12.8558C58.9294 12.4638 58.3359 12.2678 57.5464 12.2678C56.7242 12.2678 56.0762 12.4502 55.6025 12.815C55.1342 13.1744 54.8102 13.5746 54.6305 14.0156L52.3354 13.4929C52.6077 12.7306 53.0052 12.1153 53.5279 11.647C54.0561 11.1733 54.6632 10.8303 55.3493 10.6179C56.0354 10.4001 56.7569 10.2912 57.5137 10.2912C58.0147 10.2912 58.5456 10.3511 59.1064 10.4709C59.6727 10.5852 60.2009 10.7976 60.6909 11.108C61.1864 11.4183 61.5921 11.8621 61.9079 12.4393C62.2237 13.011 62.3816 13.7543 62.3816 14.669V23H59.9967V21.2848H59.8987C59.7408 21.6006 59.5039 21.911 59.1881 22.2159C58.8723 22.5208 58.4666 22.774 57.9711 22.9755C57.4756 23.177 56.8821 23.2777 56.1906 23.2777ZM56.7215 21.3175C57.3966 21.3175 57.9738 21.1841 58.453 20.9173C58.9376 20.6504 59.3051 20.302 59.5556 19.8718C59.8115 19.4362 59.9395 18.9706 59.9395 18.4751V16.858C59.8524 16.9451 59.6836 17.0268 59.4331 17.103C59.1881 17.1738 58.9077 17.2364 58.5918 17.2908C58.276 17.3398 57.9684 17.3861 57.6689 17.4297C57.3694 17.4678 57.1189 17.5005 56.9175 17.5277C56.4438 17.5876 56.0109 17.6883 55.6188 17.8299C55.2322 17.9715 54.9219 18.1757 54.6877 18.4425C54.459 18.7038 54.3447 19.0523 54.3447 19.4879C54.3447 20.0923 54.5679 20.5497 55.0144 20.8601C55.4609 21.165 56.0299 21.3175 56.7215 21.3175ZM65.6344 23V10.4545H68.0765V15.7145H69.2526L73.3936 10.4545H76.4156L71.5559 16.5558L76.4728 23H73.4426L69.661 17.9851H68.0765V23H65.6344ZM78.3697 23V10.4545H80.8118V15.7145H81.988L86.129 10.4545H89.151L84.2912 16.5558L89.2081 23H86.178L82.3964 17.9851H80.8118V23H78.3697ZM94.756 23.2777C93.961 23.2777 93.2423 23.1307 92.5997 22.8366C91.9572 22.5372 91.4481 22.1043 91.0724 21.538C90.7021 20.9717 90.517 20.2775 90.517 19.4553C90.517 18.7474 90.6531 18.1648 90.9254 17.7074C91.1976 17.25 91.5652 16.8879 92.028 16.6211C92.4908 16.3543 93.0081 16.1528 93.5799 16.0167C94.1516 15.8806 94.7342 15.7771 95.3277 15.7063C96.0791 15.6192 96.689 15.5484 97.1573 15.494C97.6255 15.4341 97.9659 15.3388 98.1782 15.2081C98.3906 15.0774 98.4968 14.8651 98.4968 14.571V14.5138C98.4968 13.8005 98.2953 13.2479 97.8924 12.8558C97.4949 12.4638 96.9014 12.2678 96.1118 12.2678C95.2896 12.2678 94.6416 12.4502 94.1679 12.815C93.6996 13.1744 93.3757 13.5746 93.196 14.0156L90.9009 13.4929C91.1731 12.7306 91.5706 12.1153 92.0934 11.647C92.6215 11.1733 93.2286 10.8303 93.9147 10.6179C94.6008 10.4001 95.3223 10.2912 96.0791 10.2912C96.5801 10.2912 97.111 10.3511 97.6718 10.4709C98.2381 10.5852 98.7663 10.7976 99.2563 11.108C99.7518 11.4183 100.158 11.8621 100.473 12.4393C100.789 13.011 100.947 13.7543 100.947 14.669V23H98.5621V21.2848H98.4641C98.3062 21.6006 98.0693 21.911 97.7535 22.2159C97.4377 22.5208 97.032 22.774 96.5365 22.9755C96.041 23.177 95.4475 23.2777 94.756 23.2777ZM95.2869 21.3175C95.9621 21.3175 96.5393 21.1841 97.0184 20.9173C97.503 20.6504 97.8706 20.302 98.121 19.8718C98.377 19.4362 98.5049 18.9706 98.5049 18.4751V16.858C98.4178 16.9451 98.249 17.0268 97.9985 17.103C97.7535 17.1738 97.4731 17.2364 97.1573 17.2908C96.8415 17.3398 96.5338 17.3861 96.2343 17.4297C95.9349 17.4678 95.6844 17.5005 95.4829 17.5277C95.0092 17.5876 94.5763 17.6883 94.1843 17.8299C93.7977 17.9715 93.4873 18.1757 93.2532 18.4425C93.0245 18.7038 92.9101 19.0523 92.9101 19.4879C92.9101 20.0923 93.1334 20.5497 93.5799 20.8601C94.0264 21.165 94.5954 21.3175 95.2869 21.3175ZM105.294 27.7045C104.929 27.7045 104.597 27.6746 104.298 27.6147C103.998 27.5603 103.775 27.5004 103.628 27.435L104.216 25.4339C104.663 25.5537 105.06 25.6055 105.409 25.5891C105.757 25.5728 106.065 25.4421 106.332 25.1971C106.604 24.9521 106.843 24.5518 107.05 23.9964L107.352 23.1634L102.762 10.4545H105.376L108.553 20.1903H108.684L111.861 10.4545H114.483L109.313 24.6744C109.073 25.3278 108.768 25.8804 108.398 26.3324C108.028 26.7898 107.587 27.1328 107.075 27.3615C106.563 27.5902 105.969 27.7045 105.294 27.7045ZM125.28 15.6737V17.7891H118.485V15.6737H125.28ZM119.171 10.4545V23H116.778V10.4545H119.171ZM126.987 10.4545V23H124.602V10.4545H126.987ZM128.699 12.5618V10.4545H139.284V12.5618H135.192V23H132.807V12.5618H128.699ZM144.934 23.2777C144.139 23.2777 143.42 23.1307 142.777 22.8366C142.135 22.5372 141.626 22.1043 141.25 21.538C140.88 20.9717 140.695 20.2775 140.695 19.4553C140.695 18.7474 140.831 18.1648 141.103 17.7074C141.375 17.25 141.743 16.8879 142.206 16.6211C142.669 16.3543 143.186 16.1528 143.758 16.0167C144.329 15.8806 144.912 15.7771 145.505 15.7063C146.257 15.6192 146.867 15.5484 147.335 15.494C147.803 15.4341 148.144 15.3388 148.356 15.2081C148.568 15.0774 148.674 14.8651 148.674 14.571V14.5138C148.674 13.8005 148.473 13.2479 148.07 12.8558C147.673 12.4638 147.079 12.2678 146.29 12.2678C145.467 12.2678 144.819 12.4502 144.346 12.815C143.877 13.1744 143.553 13.5746 143.374 14.0156L141.079 13.4929C141.351 12.7306 141.748 12.1153 142.271 11.647C142.799 11.1733 143.406 10.8303 144.092 10.6179C144.779 10.4001 145.5 10.2912 146.257 10.2912C146.758 10.2912 147.289 10.3511 147.85 10.4709C148.416 10.5852 148.944 10.7976 149.434 11.108C149.93 11.4183 150.335 11.8621 150.651 12.4393C150.967 13.011 151.125 13.7543 151.125 14.669V23H148.74V21.2848H148.642C148.484 21.6006 148.247 21.911 147.931 22.2159C147.615 22.5208 147.21 22.774 146.714 22.9755C146.219 23.177 145.625 23.2777 144.934 23.2777ZM145.465 21.3175C146.14 21.3175 146.717 21.1841 147.196 20.9173C147.681 20.6504 148.048 20.302 148.299 19.8718C148.555 19.4362 148.683 18.9706 148.683 18.4751V16.858C148.596 16.9451 148.427 17.0268 148.176 17.103C147.931 17.1738 147.651 17.2364 147.335 17.2908C147.019 17.3398 146.712 17.3861 146.412 17.4297C146.113 17.4678 145.862 17.5005 145.661 17.5277C145.187 17.5876 144.754 17.6883 144.362 17.8299C143.975 17.9715 143.665 18.1757 143.431 18.4425C143.202 18.7038 143.088 19.0523 143.088 19.4879C143.088 20.0923 143.311 20.5497 143.758 20.8601C144.204 21.165 144.773 21.3175 145.465 21.3175ZM157.048 18.1893V18.0341C157.059 17.0213 157.16 16.2154 157.351 15.6165C157.547 15.0175 157.824 14.5329 158.184 14.1626C158.543 13.7924 158.976 13.4548 159.482 13.1499C159.809 12.9429 160.103 12.7115 160.364 12.4556C160.626 12.1997 160.833 11.9057 160.985 11.5735C161.138 11.2414 161.214 10.8738 161.214 10.4709C161.214 9.98627 161.099 9.567 160.871 9.21307C160.642 8.85914 160.337 8.58688 159.956 8.39631C159.58 8.20028 159.161 8.10227 158.698 8.10227C158.279 8.10227 157.879 8.18939 157.498 8.36364C157.116 8.53788 156.801 8.81013 156.55 9.1804C156.3 9.54522 156.155 10.0162 156.117 10.5934H153.634C153.672 9.61328 153.92 8.78563 154.378 8.11044C154.835 7.42981 155.439 6.91525 156.191 6.56676C156.948 6.21828 157.783 6.04403 158.698 6.04403C159.7 6.04403 160.577 6.23189 161.328 6.6076C162.08 6.97786 162.662 7.49787 163.076 8.16761C163.495 8.83191 163.705 9.60784 163.705 10.4954C163.705 11.1052 163.61 11.6552 163.419 12.1452C163.229 12.6299 162.956 13.0627 162.602 13.4439C162.254 13.825 161.835 14.1626 161.345 14.4567C160.882 14.7453 160.506 15.0447 160.217 15.3551C159.934 15.6655 159.727 16.033 159.597 16.4577C159.466 16.8825 159.395 17.4079 159.384 18.0341V18.1893H157.048ZM158.282 23.1552C157.835 23.1552 157.451 22.9973 157.13 22.6815C156.809 22.3602 156.648 21.9736 156.648 21.5217C156.648 21.0752 156.809 20.694 157.13 20.3782C157.451 20.0569 157.835 19.8963 158.282 19.8963C158.723 19.8963 159.104 20.0569 159.425 20.3782C159.752 20.694 159.915 21.0752 159.915 21.5217C159.915 21.8211 159.839 22.0961 159.686 22.3466C159.539 22.5916 159.343 22.7876 159.098 22.9347C158.853 23.0817 158.581 23.1552 158.282 23.1552Z" fill="#FEFEFE"/>
</g>
<defs>
<filter id="filter0_d_119_736" x="169" y="0.5" width="46.9233" height="37.785" filterUnits="userSpaceOnUse" color-interpolation-filters="sRGB">
<feFlood flood-opacity="0" result="BackgroundImageFix"/>
<feColorMatrix in="SourceAlpha" type="matrix" values="0 0 0 0 0 0 0 0 0 0 0 0 0 0 0 0 0 0 127 0" result="hardAlpha"/>
<feOffset dy="4"/>
<feGaussianBlur stdDeviation="2"/>
<feComposite in2="hardAlpha" operator="out"/>
<feColorMatrix type="matrix" values="0 0 0 0 0 0 0 0 0 0 0 0 0 0 0 0 0 0 0.25 0"/>
<feBlend mode="normal" in2="BackgroundImageFix" result="effect1_dropShadow_119_736"/>
<feBlend mode="normal" in="SourceGraphic" in2="effect1_dropShadow_119_736" result="shape"/>
</filter>
<filter id="filter1_d_119_736" x="0.0180664" y="6.04401" width="167.687" height="29.6605" filterUnits="userSpaceOnUse" color-interpolation-filters="sRGB">
<feFlood flood-opacity="0" result="BackgroundImageFix"/>
<feColorMatrix in="SourceAlpha" type="matrix" values="0 0 0 0 0 0 0 0 0 0 0 0 0 0 0 0 0 0 127 0" result="hardAlpha"/>
<feOffset dy="4"/>
<feGaussianBlur stdDeviation="2"/>
<feComposite in2="hardAlpha" operator="out"/>
<feColorMatrix type="matrix" values="0 0 0 0 0 0 0 0 0 0 0 0 0 0 0 0 0 0 0.25 0"/>
<feBlend mode="normal" in2="BackgroundImageFix" result="effect1_dropShadow_119_736"/>
<feBlend mode="normal" in="SourceGraphic" in2="effect1_dropShadow_119_736" result="shape"/>
</filter>
</defs>
</svg>
