<svg width="800" height="600" viewBox="0 0 800 600" fill="none" xmlns="http://www.w3.org/2000/svg">
<g clip-path="url(#clip0_101_798)">
<rect width="800" height="600" fill="#101727"/>
<g filter="url(#filter0_f_101_798)">
<path d="M458.612 574.165C429.862 595.871 326.045 599.348 305.92 568.081C285.795 536.814 374.735 409.681 418.75 417.331C462.765 424.981 487.362 552.46 458.612 574.165Z" fill="#5D5FEF"/>
<path d="M433.078 569.906C412.371 585.499 337.598 587.997 323.103 565.535C308.608 543.074 372.666 451.742 404.367 457.238C436.069 462.734 453.784 554.313 433.078 569.906Z" fill="#7879F1"/>
<path d="M422.921 563.422C406.493 575.771 347.168 577.75 335.668 559.96C324.168 542.17 374.992 469.836 400.143 474.188C425.294 478.541 439.35 551.072 422.921 563.422Z" fill="#A5A6F6"/>
<path d="M88.8089 327.1C161.73 233.162 396.081 217.703 456.731 264.783C517.38 311.863 356.192 380.329 283.27 474.268C210.349 568.206 134.926 705.209 74.2762 658.129C13.6265 611.049 15.8877 421.039 88.8089 327.1Z" fill="#5D5FEF"/>
<path d="M91.4049 343.735C150.083 268.145 338.658 255.706 387.461 293.59C436.265 331.474 306.56 386.567 247.883 462.156C189.205 537.746 128.514 647.988 79.7108 610.104C30.9078 572.22 32.7273 419.325 91.4049 343.735Z" fill="#7879F1"/>
<path d="M219.611 464.936C157.161 517.493 99.9486 566.214 77.7978 539.894C55.647 513.573 116.261 360.294 178.711 307.737C241.161 255.181 281.798 323.249 303.949 349.57C326.099 375.89 282.061 412.38 219.611 464.936Z" fill="#A5A6F6"/>
<path d="M500.231 387.402C552.342 335.282 505.729 174.866 589.759 258.881C673.789 342.897 754.638 648.492 702.527 700.612C650.416 752.731 642.055 717.912 558.025 633.897C473.995 549.881 448.12 439.522 500.231 387.402Z" fill="url(#paint0_linear_101_798)"/>
<path d="M517.031 392.721C561.323 348.422 521.705 212.076 593.126 283.485C664.548 354.894 733.265 614.636 688.974 658.935C644.682 703.234 637.575 673.64 566.154 602.23C494.732 530.821 472.74 437.021 517.031 392.721Z" fill="#7879F1"/>
<path d="M548.758 384.564C581.353 351.964 556.179 279.664 608.739 332.215C661.299 384.766 711.869 575.912 679.274 608.512C646.68 641.113 601.318 543.983 548.758 491.432C496.198 438.881 516.163 417.165 548.758 384.564Z" fill="#A5A6F6"/>
<path d="M710.041 429.039C722.362 402.65 745.246 361.542 774.354 345.075C832.293 312.3 841.646 418.579 839.786 509.471C838.923 551.663 787.363 566.588 761.672 533.108L715.675 473.167C705.91 460.44 703.256 443.575 710.041 429.039Z" fill="#5D5FEF"/>
<path d="M731.196 434C741.993 411.593 760.713 379.444 784.201 366.162C829.789 340.384 839.99 415.845 840 488.46C840.006 530.656 788.545 545.625 762.851 512.155L736.686 478.071C726.914 465.342 724.231 448.457 731.196 434Z" fill="#7879F1"/>
<path d="M758.581 439.777C767.174 423.11 780.526 402.167 796.861 392.972C826.561 376.256 836.834 414.862 839.335 460.862C841.624 502.932 789.647 517.368 763.916 484.006C754.079 471.25 751.199 454.095 758.581 439.777Z" fill="#A5A6F6"/>
<path d="M542.593 97.613C522.574 166.473 344.74 224.381 205.41 183.877C66.0804 143.372 -73.1748 32.6599 -53.1564 -36.2006C-33.1379 -105.061 96.4015 -46.5633 235.731 -6.05857C375.061 34.4461 562.611 28.7525 542.593 97.613Z" fill="#5D5FEF"/>
<path d="M464.76 97.8211C450.048 148.428 319.354 190.986 216.958 161.218C114.562 131.45 12.2204 50.0859 26.9324 -0.520948C41.6444 -51.1278 136.845 -8.13667 239.241 21.631C341.638 51.3986 479.472 47.2143 464.76 97.8211Z" fill="#7879F1"/>
<path d="M404.712 96.6927C393.491 135.291 293.808 167.751 215.709 145.047C137.61 122.342 59.5525 60.2843 70.7735 21.6855C81.9946 -16.9132 154.606 15.8769 232.705 38.5812C310.805 61.2855 415.933 58.094 404.712 96.6927Z" fill="#A5A6F6"/>
<path d="M577.983 68.6843L550.594 34.3977C530.894 9.73657 540.619 -26.9466 569.949 -38.61L775.633 -120.403C806.492 -132.675 840 -109.94 840 -76.7298V247.078C840 255.828 832.907 262.92 824.158 262.92C820.806 262.92 817.54 263.984 814.831 265.957L728 329.203C702.714 347.621 666.828 336.659 656.151 307.255L642.135 268.658C638.272 258.018 630.698 249.129 620.806 243.627L578.588 220.141C555.076 207.062 547.321 176.952 561.59 154.142L581.106 122.945C591.689 106.029 590.437 84.2745 577.983 68.6843Z" fill="#5D5FEF"/>
<path d="M622.081 45.4022L604.648 23.5988C584.928 -1.0652 594.656 -37.7713 624.003 -49.4309L792.646 -116.432C823.504 -128.692 857 -105.958 857 -72.7535V192.092C857 206.623 843.413 217.332 829.283 213.936C821.817 212.142 813.951 214.285 808.427 219.619L764.846 261.703C740.364 285.344 699.651 275.934 688.025 243.948L682.067 227.554C678.2 216.914 670.622 208.027 660.726 202.527L629.894 185.392C606.363 172.314 598.604 142.183 612.891 119.367L625.208 99.696C635.805 82.7715 634.551 60.9984 622.081 45.4022Z" fill="#7879F1"/>
<path d="M663.27 18.8164L649.745 1.9277C629.988 -22.7414 639.722 -59.4883 669.101 -71.1412L813.671 -128.484C844.525 -140.722 878 -117.988 878 -84.7955V148.88C878 163.853 864.003 174.889 849.442 171.396C844.339 170.171 838.971 170.717 834.218 172.943L774.878 200.739C757.775 208.75 737.396 203.635 726.105 188.495C717.378 176.793 702.932 170.812 688.486 172.908C657.132 177.458 633.224 145.384 646.583 116.657L669.203 68.0144C676.733 51.8199 674.435 32.7566 663.27 18.8164Z" fill="#A5A6F6"/>
<path d="M110.518 218.054C111.284 254.069 53.3241 340.271 16.1935 338.282C-20.937 336.293 -71.9373 189.759 -39.9671 158.554C-7.99698 127.349 109.752 182.039 110.518 218.054Z" fill="#5D5FEF"/>
<path d="M92.1164 236.261C92.6353 262.177 50.8854 324.26 24.1894 322.861C-2.50654 321.462 -39.0485 216.06 -16.0338 193.577C6.98083 171.094 91.5975 210.346 92.1164 236.261Z" fill="#7879F1"/>
<path d="M80.913 240.699C81.3071 261.248 48.1804 310.502 27.0254 309.41C5.87042 308.318 -23.0187 224.768 -4.76536 206.925C13.488 189.083 80.5188 220.15 80.913 240.699Z" fill="#A5A6F6"/>
</g>
</g>
<defs>
<filter id="filter0_f_101_798" x="-113" y="-159" width="996" height="905" filterUnits="userSpaceOnUse" color-interpolation-filters="sRGB">
<feFlood flood-opacity="0" result="BackgroundImageFix"/>
<feBlend mode="normal" in="SourceGraphic" in2="BackgroundImageFix" result="shape"/>
<feGaussianBlur stdDeviation="2.5" result="effect1_foregroundBlur_101_798"/>
</filter>
<linearGradient id="paint0_linear_101_798" x1="507.073" y1="585.954" x2="711.945" y2="381.046" gradientUnits="userSpaceOnUse">
<stop stop-color="#5D5FEF"/>
<stop offset="1" stop-color="#4B4EE2"/>
</linearGradient>
<clipPath id="clip0_101_798">
<rect width="800" height="600" fill="white"/>
</clipPath>
</defs>
</svg>
