<svg width="629" height="675" viewBox="0 0 629 675" fill="none" xmlns="http://www.w3.org/2000/svg">
<g filter="url(#filter0_d_101_923)">
<rect x="4" width="621" height="667" rx="23" fill="#F9F5F5"/>
<path d="M91.7712 488.229C90.6931 488.229 89.732 488.044 88.8881 487.673C88.0495 487.303 87.3825 486.788 86.887 486.13C86.3969 485.465 86.1301 484.695 86.0866 483.818H88.1448C88.1884 484.357 88.3735 484.823 88.7002 485.215C89.0269 485.601 89.4543 485.901 89.9825 486.113C90.5107 486.326 91.096 486.432 91.7385 486.432C92.4573 486.432 93.0944 486.307 93.6498 486.056C94.2052 485.806 94.6408 485.457 94.9566 485.011C95.2724 484.564 95.4303 484.047 95.4303 483.459C95.4303 482.844 95.2778 482.302 94.9729 481.833C94.668 481.36 94.2215 480.989 93.6334 480.723C93.0454 480.456 92.3266 480.322 91.4772 480.322H90.1377V478.526H91.4772C92.1415 478.526 92.7241 478.406 93.2251 478.166C93.7314 477.927 94.1262 477.589 94.4094 477.153C94.6979 476.718 94.8422 476.206 94.8422 475.618C94.8422 475.052 94.717 474.559 94.4665 474.14C94.2161 473.72 93.8621 473.394 93.4047 473.159C92.9528 472.925 92.4192 472.808 91.8039 472.808C91.2267 472.808 90.6822 472.914 90.1704 473.127C89.664 473.334 89.2501 473.636 88.9289 474.033C88.6076 474.425 88.4334 474.899 88.4062 475.455H86.4459C86.4786 474.578 86.7427 473.81 87.2382 473.151C87.7337 472.487 88.3817 471.97 89.1821 471.599C89.988 471.229 90.8728 471.044 91.8366 471.044C92.8711 471.044 93.7587 471.254 94.4992 471.673C95.2397 472.087 95.8087 472.634 96.2062 473.315C96.6037 473.995 96.8025 474.73 96.8025 475.52C96.8025 476.462 96.5547 477.265 96.0592 477.929C95.5692 478.594 94.9021 479.054 94.0582 479.31V479.44C95.1145 479.615 95.9394 480.064 96.5329 480.788C97.1265 481.507 97.4232 482.397 97.4232 483.459C97.4232 484.368 97.1755 485.185 96.68 485.909C96.1899 486.628 95.5202 487.194 94.6707 487.608C93.8213 488.022 92.8548 488.229 91.7712 488.229ZM104.488 488.294C103.693 488.294 102.972 488.144 102.324 487.845C101.676 487.54 101.161 487.102 100.78 486.53C100.399 485.953 100.208 485.256 100.208 484.439C100.208 483.72 100.35 483.138 100.633 482.691C100.916 482.239 101.295 481.885 101.768 481.629C102.242 481.373 102.765 481.183 103.337 481.058C103.914 480.927 104.494 480.823 105.076 480.747C105.839 480.649 106.457 480.576 106.93 480.527C107.409 480.472 107.758 480.382 107.976 480.257C108.199 480.132 108.311 479.914 108.311 479.604V479.538C108.311 478.732 108.09 478.106 107.649 477.66C107.213 477.213 106.552 476.99 105.664 476.99C104.744 476.99 104.023 477.192 103.5 477.594C102.977 477.997 102.61 478.428 102.397 478.885L100.568 478.232C100.894 477.469 101.33 476.876 101.875 476.451C102.425 476.021 103.023 475.721 103.671 475.553C104.325 475.378 104.967 475.291 105.599 475.291C106.002 475.291 106.465 475.34 106.987 475.438C107.516 475.531 108.025 475.724 108.515 476.018C109.01 476.312 109.421 476.756 109.748 477.349C110.075 477.943 110.238 478.738 110.238 479.734V488H108.311V486.301H108.213C108.082 486.573 107.864 486.865 107.559 487.175C107.254 487.485 106.849 487.75 106.342 487.967C105.836 488.185 105.218 488.294 104.488 488.294ZM104.782 486.562C105.545 486.562 106.187 486.413 106.71 486.113C107.238 485.814 107.635 485.427 107.902 484.953C108.175 484.48 108.311 483.982 108.311 483.459V481.695C108.229 481.793 108.049 481.882 107.772 481.964C107.499 482.04 107.184 482.108 106.824 482.168C106.47 482.223 106.124 482.272 105.787 482.315C105.455 482.353 105.185 482.386 104.978 482.413C104.477 482.479 104.009 482.585 103.573 482.732C103.143 482.873 102.795 483.089 102.528 483.377C102.267 483.66 102.136 484.047 102.136 484.537C102.136 485.207 102.384 485.713 102.879 486.056C103.38 486.394 104.014 486.562 104.782 486.562ZM123.067 470.75L124.048 471.926C123.666 472.296 123.225 472.555 122.724 472.702C122.223 472.849 121.657 472.939 121.026 472.972C120.394 473.004 119.692 473.037 118.918 473.07C118.047 473.102 117.326 473.315 116.754 473.707C116.182 474.099 115.741 474.665 115.431 475.406C115.12 476.146 114.922 477.055 114.835 478.134H114.998C115.423 477.349 116.011 476.772 116.762 476.402C117.513 476.032 118.319 475.847 119.18 475.847C120.16 475.847 121.042 476.075 121.826 476.533C122.61 476.99 123.231 477.668 123.688 478.566C124.146 479.465 124.374 480.573 124.374 481.891C124.374 483.203 124.14 484.335 123.672 485.288C123.209 486.241 122.558 486.976 121.72 487.494C120.887 488.005 119.909 488.261 118.788 488.261C117.666 488.261 116.683 487.997 115.839 487.469C114.995 486.935 114.339 486.146 113.871 485.1C113.402 484.05 113.168 482.751 113.168 481.205V479.865C113.168 477.072 113.642 474.954 114.589 473.511C115.542 472.068 116.974 471.322 118.886 471.273C119.561 471.251 120.163 471.246 120.691 471.256C121.219 471.267 121.679 471.243 122.071 471.183C122.463 471.123 122.795 470.979 123.067 470.75ZM118.788 486.53C119.545 486.53 120.195 486.339 120.74 485.958C121.29 485.577 121.712 485.041 122.006 484.349C122.3 483.652 122.447 482.833 122.447 481.891C122.447 480.976 122.297 480.197 121.998 479.555C121.703 478.912 121.281 478.422 120.732 478.085C120.182 477.747 119.523 477.578 118.755 477.578C118.194 477.578 117.69 477.673 117.244 477.864C116.797 478.055 116.416 478.335 116.1 478.705C115.785 479.076 115.54 479.527 115.365 480.061C115.197 480.595 115.107 481.205 115.096 481.891C115.096 483.295 115.425 484.42 116.084 485.264C116.743 486.108 117.644 486.53 118.788 486.53ZM128.989 479.996H132.583C134.053 479.996 135.177 480.369 135.956 481.115C136.735 481.861 137.124 482.805 137.124 483.949C137.124 484.7 136.95 485.384 136.601 485.999C136.253 486.609 135.741 487.096 135.066 487.461C134.391 487.82 133.563 488 132.583 488H127.323V475.455H129.25V486.203H132.583C133.345 486.203 133.971 486.002 134.461 485.599C134.951 485.196 135.196 484.679 135.196 484.047C135.196 483.383 134.951 482.841 134.461 482.422C133.971 482.002 133.345 481.793 132.583 481.793H128.989V479.996ZM139.117 488V475.455H141.044V488H139.117ZM143.462 488V486.203H143.919C144.295 486.203 144.608 486.13 144.859 485.983C145.109 485.83 145.311 485.566 145.463 485.19C145.621 484.809 145.741 484.281 145.822 483.606C145.91 482.925 145.972 482.059 146.01 481.009L146.239 475.455H154.603V488H152.675V477.251H148.069L147.873 481.727C147.829 482.756 147.736 483.663 147.595 484.447C147.459 485.226 147.249 485.879 146.966 486.407C146.688 486.935 146.318 487.333 145.855 487.6C145.392 487.867 144.812 488 144.115 488H143.462ZM160.067 485.158L166.111 475.455H168.332V488H166.405V478.297L160.393 488H158.139V475.455H160.067V485.158ZM178.332 488V475.455H188.198V488H186.271V477.251H180.259V488H178.332ZM195.41 488.294C194.615 488.294 193.894 488.144 193.246 487.845C192.598 487.54 192.083 487.102 191.702 486.53C191.321 485.953 191.13 485.256 191.13 484.439C191.13 483.72 191.272 483.138 191.555 482.691C191.838 482.239 192.217 481.885 192.69 481.629C193.164 481.373 193.687 481.183 194.258 481.058C194.836 480.927 195.416 480.823 195.998 480.747C196.76 480.649 197.378 480.576 197.852 480.527C198.331 480.472 198.68 480.382 198.898 480.257C199.121 480.132 199.233 479.914 199.233 479.604V479.538C199.233 478.732 199.012 478.106 198.571 477.66C198.135 477.213 197.474 476.99 196.586 476.99C195.666 476.99 194.945 477.192 194.422 477.594C193.899 477.997 193.532 478.428 193.319 478.885L191.49 478.232C191.816 477.469 192.252 476.876 192.796 476.451C193.346 476.021 193.945 475.721 194.593 475.553C195.247 475.378 195.889 475.291 196.521 475.291C196.924 475.291 197.387 475.34 197.909 475.438C198.438 475.531 198.947 475.724 199.437 476.018C199.932 476.312 200.343 476.756 200.67 477.349C200.997 477.943 201.16 478.738 201.16 479.734V488H199.233V486.301H199.134C199.004 486.573 198.786 486.865 198.481 487.175C198.176 487.485 197.771 487.75 197.264 487.967C196.758 488.185 196.14 488.294 195.41 488.294ZM195.704 486.562C196.466 486.562 197.109 486.413 197.632 486.113C198.16 485.814 198.557 485.427 198.824 484.953C199.096 484.48 199.233 483.982 199.233 483.459V481.695C199.151 481.793 198.971 481.882 198.693 481.964C198.421 482.04 198.105 482.108 197.746 482.168C197.392 482.223 197.046 482.272 196.709 482.315C196.377 482.353 196.107 482.386 195.9 482.413C195.399 482.479 194.931 482.585 194.495 482.732C194.065 482.873 193.717 483.089 193.45 483.377C193.188 483.66 193.058 484.047 193.058 484.537C193.058 485.207 193.306 485.713 193.801 486.056C194.302 486.394 194.936 486.562 195.704 486.562ZM204.678 492.705V475.455H206.54V477.447H206.769C206.911 477.23 207.107 476.952 207.357 476.614C207.613 476.271 207.978 475.966 208.452 475.7C208.931 475.427 209.579 475.291 210.396 475.291C211.452 475.291 212.383 475.555 213.189 476.083C213.995 476.612 214.624 477.36 215.076 478.33C215.528 479.299 215.754 480.442 215.754 481.76C215.754 483.089 215.528 484.24 215.076 485.215C214.624 486.184 213.998 486.935 213.197 487.469C212.397 487.997 211.474 488.261 210.428 488.261C209.622 488.261 208.977 488.128 208.493 487.861C208.008 487.589 207.635 487.281 207.374 486.938C207.112 486.59 206.911 486.301 206.769 486.072H206.606V492.705H204.678ZM206.573 481.727C206.573 482.675 206.712 483.511 206.99 484.235C207.267 484.953 207.673 485.517 208.207 485.925C208.74 486.328 209.394 486.53 210.167 486.53C210.973 486.53 211.645 486.317 212.184 485.893C212.729 485.463 213.137 484.885 213.409 484.161C213.687 483.432 213.826 482.62 213.826 481.727C213.826 480.845 213.69 480.05 213.418 479.342C213.151 478.629 212.745 478.065 212.201 477.652C211.662 477.232 210.984 477.023 210.167 477.023C209.383 477.023 208.724 477.221 208.19 477.619C207.657 478.011 207.254 478.561 206.982 479.269C206.709 479.971 206.573 480.791 206.573 481.727ZM223.79 488.261C222.658 488.261 221.664 487.992 220.809 487.453C219.96 486.914 219.296 486.16 218.816 485.19C218.343 484.221 218.106 483.089 218.106 481.793C218.106 480.486 218.343 479.345 218.816 478.37C219.296 477.396 219.96 476.639 220.809 476.1C221.664 475.561 222.658 475.291 223.79 475.291C224.923 475.291 225.914 475.561 226.763 476.1C227.618 476.639 228.283 477.396 228.756 478.37C229.236 479.345 229.475 480.486 229.475 481.793C229.475 483.089 229.236 484.221 228.756 485.19C228.283 486.16 227.618 486.914 226.763 487.453C225.914 487.992 224.923 488.261 223.79 488.261ZM223.79 486.53C224.651 486.53 225.359 486.309 225.914 485.868C226.469 485.427 226.881 484.847 227.147 484.129C227.414 483.41 227.548 482.631 227.548 481.793C227.548 480.954 227.414 480.173 227.147 479.449C226.881 478.724 226.469 478.139 225.914 477.692C225.359 477.246 224.651 477.023 223.79 477.023C222.93 477.023 222.222 477.246 221.667 477.692C221.112 478.139 220.7 478.724 220.434 479.449C220.167 480.173 220.033 480.954 220.033 481.793C220.033 482.631 220.167 483.41 220.434 484.129C220.7 484.847 221.112 485.427 221.667 485.868C222.222 486.309 222.93 486.53 223.79 486.53ZM231.307 488V486.203H231.764C232.14 486.203 232.453 486.13 232.703 485.983C232.954 485.83 233.155 485.566 233.308 485.19C233.466 484.809 233.585 484.281 233.667 483.606C233.754 482.925 233.817 482.059 233.855 481.009L234.084 475.455H242.447V488H240.52V477.251H235.913L235.717 481.727C235.674 482.756 235.581 483.663 235.44 484.447C235.303 485.226 235.094 485.879 234.811 486.407C234.533 486.935 234.163 487.333 233.7 487.6C233.237 487.867 232.657 488 231.96 488H231.307ZM247.65 479.996H251.244C252.714 479.996 253.838 480.369 254.617 481.115C255.396 481.861 255.785 482.805 255.785 483.949C255.785 484.7 255.611 485.384 255.262 485.999C254.914 486.609 254.402 487.096 253.727 487.461C253.052 487.82 252.224 488 251.244 488H245.984V475.455H247.911V486.203H251.244C252.006 486.203 252.632 486.002 253.122 485.599C253.612 485.196 253.858 484.679 253.858 484.047C253.858 483.383 253.612 482.841 253.122 482.422C252.632 482.002 252.006 481.793 251.244 481.793H247.65V479.996ZM261.235 483.295V483.197C261.246 482.157 261.355 481.33 261.562 480.714C261.769 480.099 262.063 479.601 262.444 479.22C262.825 478.839 263.282 478.487 263.816 478.166C264.137 477.97 264.426 477.739 264.682 477.472C264.938 477.2 265.139 476.887 265.286 476.533C265.439 476.179 265.515 475.787 265.515 475.357C265.515 474.823 265.39 474.36 265.139 473.968C264.889 473.576 264.554 473.274 264.134 473.061C263.715 472.849 263.25 472.743 262.738 472.743C262.291 472.743 261.861 472.835 261.447 473.021C261.033 473.206 260.688 473.497 260.41 473.895C260.132 474.292 259.972 474.812 259.928 475.455H257.87C257.913 474.529 258.153 473.737 258.589 473.078C259.03 472.419 259.61 471.915 260.328 471.567C261.052 471.218 261.856 471.044 262.738 471.044C263.696 471.044 264.529 471.235 265.237 471.616C265.95 471.997 266.5 472.52 266.887 473.184C267.279 473.848 267.475 474.605 267.475 475.455C267.475 476.054 267.382 476.595 267.197 477.08C267.018 477.565 266.756 477.997 266.413 478.379C266.076 478.76 265.667 479.097 265.188 479.391C264.709 479.691 264.325 480.007 264.036 480.339C263.748 480.665 263.538 481.055 263.407 481.507C263.277 481.959 263.206 482.522 263.195 483.197V483.295H261.235ZM262.28 488.131C261.877 488.131 261.532 487.986 261.243 487.698C260.954 487.409 260.81 487.063 260.81 486.661C260.81 486.258 260.954 485.912 261.243 485.623C261.532 485.335 261.877 485.19 262.28 485.19C262.683 485.19 263.029 485.335 263.318 485.623C263.606 485.912 263.751 486.258 263.751 486.661C263.751 486.927 263.682 487.172 263.546 487.396C263.416 487.619 263.239 487.799 263.015 487.935C262.798 488.065 262.553 488.131 262.28 488.131Z" fill="#5D65D6"/>
<path d="M84.3877 492.574H268.618V494.142H84.3877V492.574Z" fill="#5D65D6"/>
<rect x="73.1053" y="228.105" width="483.789" height="81.7895" rx="13.9263" fill="#FEFEFE" stroke="#9D9D9D" stroke-width="2.21053"/>
<rect x="73.1053" y="377.105" width="483.789" height="81.7895" rx="13.9263" fill="#FEFEFE" stroke="#9D9D9D" stroke-width="2.21053"/>
<path d="M86.7757 280V259.1H93.8273C95.1879 259.1 96.3206 259.339 97.2255 259.815C98.1371 260.291 98.8208 260.941 99.2767 261.764C99.7325 262.587 99.9604 263.523 99.9604 264.57C99.9604 265.441 99.8141 266.186 99.5216 266.805C99.229 267.424 98.831 267.924 98.3276 268.305C97.8242 268.686 97.2629 268.962 96.6438 269.132V269.295C97.3173 269.343 97.9704 269.581 98.6031 270.009C99.2358 270.431 99.7563 271.023 100.164 271.785C100.573 272.547 100.777 273.459 100.777 274.52C100.777 275.574 100.542 276.517 100.073 277.347C99.6032 278.17 98.8821 278.82 97.9092 279.296C96.9431 279.765 95.7118 280 94.215 280H86.7757ZM88.684 278.286H94.215C95.8274 278.286 97.018 277.928 97.7867 277.214C98.5623 276.5 98.9501 275.602 98.9501 274.52C98.9501 273.724 98.7562 273.003 98.3684 272.357C97.9874 271.703 97.4466 271.186 96.7459 270.805C96.0519 270.424 95.2355 270.234 94.2967 270.234H88.684V278.286ZM88.684 268.54H94.0007C94.8239 268.54 95.5451 268.37 96.1642 268.03C96.7833 267.69 97.2663 267.22 97.6133 266.621C97.9602 266.023 98.1337 265.339 98.1337 264.57C98.1337 263.461 97.7731 262.56 97.052 261.866C96.3309 261.165 95.2559 260.815 93.8273 260.815H88.684V268.54ZM105.004 280V264.325H111.178C112.845 264.325 114.158 264.686 115.117 265.407C116.083 266.128 116.566 267.101 116.566 268.326C116.566 269.258 116.297 270.003 115.76 270.561C115.223 271.118 114.501 271.513 113.597 271.744C114.202 271.846 114.763 272.067 115.28 272.408C115.804 272.748 116.229 273.197 116.556 273.755C116.883 274.313 117.046 274.979 117.046 275.755C117.046 276.571 116.842 277.299 116.434 277.939C116.025 278.578 115.45 279.082 114.709 279.449C113.967 279.816 113.09 280 112.076 280H105.004ZM106.739 278.316H112.076C113.035 278.316 113.794 278.071 114.352 277.581C114.91 277.085 115.189 276.425 115.189 275.602C115.189 274.724 114.923 274.023 114.393 273.5C113.869 272.969 113.165 272.704 112.28 272.704H106.739V278.316ZM106.739 271.091H111.29C111.998 271.091 112.61 270.982 113.127 270.765C113.644 270.547 114.042 270.241 114.321 269.846C114.607 269.445 114.746 268.975 114.74 268.438C114.74 267.669 114.427 267.074 113.801 266.652C113.175 266.223 112.301 266.009 111.178 266.009H106.739V271.091ZM127.365 280.327C125.903 280.327 124.637 279.986 123.569 279.306C122.501 278.619 121.675 277.67 121.09 276.459C120.511 275.241 120.222 273.84 120.222 272.255C120.222 270.676 120.511 269.275 121.09 268.05C121.675 266.819 122.481 265.856 123.508 265.162C124.542 264.461 125.736 264.111 127.09 264.111C127.94 264.111 128.76 264.268 129.549 264.58C130.338 264.887 131.046 265.359 131.672 265.999C132.305 266.632 132.805 267.431 133.172 268.397C133.539 269.356 133.723 270.492 133.723 271.806V272.704H121.477V271.101H131.866C131.866 270.094 131.662 269.19 131.254 268.387C130.852 267.577 130.291 266.938 129.57 266.468C128.855 265.999 128.029 265.764 127.09 265.764C126.097 265.764 125.222 266.03 124.467 266.56C123.712 267.091 123.12 267.792 122.692 268.662C122.27 269.533 122.056 270.486 122.049 271.52V272.479C122.049 273.724 122.263 274.813 122.692 275.745C123.127 276.67 123.743 277.388 124.539 277.898C125.335 278.408 126.277 278.663 127.365 278.663C128.107 278.663 128.757 278.548 129.315 278.316C129.879 278.085 130.352 277.775 130.733 277.388C131.121 276.993 131.413 276.561 131.611 276.092L133.335 276.653C133.097 277.313 132.706 277.922 132.162 278.479C131.624 279.037 130.951 279.486 130.141 279.827C129.338 280.16 128.413 280.327 127.365 280.327ZM135.869 284.46V278.286H137.226C137.566 277.905 137.862 277.493 138.114 277.051C138.365 276.609 138.583 276.105 138.767 275.54C138.957 274.969 139.117 274.306 139.246 273.551C139.376 272.789 139.485 271.901 139.573 270.887L140.144 264.325H149.421V278.286H151.747V284.46H149.931V280H137.695V284.46H135.869ZM139.318 278.286H147.604V266.04H141.839L141.369 270.887C141.206 272.533 140.974 273.969 140.675 275.194C140.376 276.418 139.923 277.449 139.318 278.286ZM157.026 277.418L165.302 264.325H167.476V280H165.659V266.907L157.414 280H155.209V264.325H157.026V277.418ZM170.078 266.04V264.325H182.324V266.04H177.14V280H175.323V266.04H170.078ZM191.687 280.327C190.224 280.327 188.959 279.986 187.89 279.306C186.822 278.619 185.996 277.67 185.411 276.459C184.832 275.241 184.543 273.84 184.543 272.255C184.543 270.676 184.832 269.275 185.411 268.05C185.996 266.819 186.802 265.856 187.829 265.162C188.863 264.461 190.057 264.111 191.411 264.111C192.261 264.111 193.081 264.268 193.87 264.58C194.66 264.887 195.367 265.359 195.993 265.999C196.626 266.632 197.126 267.431 197.493 268.397C197.861 269.356 198.044 270.492 198.044 271.806V272.704H185.798V271.101H196.187C196.187 270.094 195.983 269.19 195.575 268.387C195.173 267.577 194.612 266.938 193.891 266.468C193.177 265.999 192.35 265.764 191.411 265.764C190.418 265.764 189.544 266.03 188.788 266.56C188.033 267.091 187.441 267.792 187.013 268.662C186.591 269.533 186.377 270.486 186.37 271.52V272.479C186.37 273.724 186.584 274.813 187.013 275.745C187.448 276.67 188.064 277.388 188.86 277.898C189.656 278.408 190.598 278.663 191.687 278.663C192.428 278.663 193.078 278.548 193.636 278.316C194.2 278.085 194.673 277.775 195.054 277.388C195.442 276.993 195.735 276.561 195.932 276.092L197.656 276.653C197.418 277.313 197.027 277.922 196.483 278.479C195.945 279.037 195.272 279.486 194.462 279.827C193.66 280.16 192.734 280.327 191.687 280.327ZM210.15 280V264.325H222.018V280H220.191V266.04H211.976V280H210.15ZM232.919 280.327C231.565 280.327 230.368 279.983 229.327 279.296C228.293 278.609 227.484 277.66 226.898 276.449C226.313 275.231 226.021 273.826 226.021 272.234C226.021 270.629 226.313 269.217 226.898 267.999C227.484 266.775 228.293 265.822 229.327 265.142C230.368 264.455 231.565 264.111 232.919 264.111C234.273 264.111 235.467 264.455 236.501 265.142C237.535 265.829 238.345 266.781 238.93 267.999C239.522 269.217 239.818 270.629 239.818 272.234C239.818 273.826 239.525 275.231 238.94 276.449C238.355 277.66 237.542 278.609 236.501 279.296C235.467 279.983 234.273 280.327 232.919 280.327ZM232.919 278.663C234.008 278.663 234.93 278.371 235.685 277.786C236.44 277.2 237.011 276.422 237.399 275.449C237.794 274.476 237.991 273.404 237.991 272.234C237.991 271.064 237.794 269.989 237.399 269.009C237.011 268.03 236.44 267.244 235.685 266.652C234.93 266.06 234.008 265.764 232.919 265.764C231.838 265.764 230.916 266.06 230.154 266.652C229.399 267.244 228.824 268.03 228.429 269.009C228.041 269.989 227.847 271.064 227.847 272.234C227.847 273.404 228.041 274.476 228.429 275.449C228.824 276.422 229.399 277.2 230.154 277.786C230.909 278.371 231.831 278.663 232.919 278.663ZM255.367 264.325V280H253.541V264.325H255.367ZM254.694 272.071V273.806C254.075 274.03 253.486 274.221 252.928 274.377C252.371 274.527 251.809 274.642 251.245 274.724C250.687 274.806 250.091 274.847 249.459 274.847C247.697 274.84 246.312 274.387 245.305 273.489C244.305 272.591 243.805 271.224 243.805 269.387V264.274H245.622V269.387C245.622 270.258 245.778 270.969 246.091 271.52C246.404 272.071 246.846 272.479 247.418 272.744C247.989 273.003 248.663 273.132 249.438 273.132C250.391 273.132 251.289 273.037 252.132 272.846C252.976 272.656 253.83 272.397 254.694 272.071ZM258 266.04V264.325H270.246V266.04H265.062V280H263.246V266.04H258ZM275.351 285.878C274.99 285.878 274.654 285.844 274.341 285.776C274.028 285.708 273.779 285.633 273.596 285.551L274.086 283.949C274.705 284.14 275.256 284.208 275.739 284.153C276.222 284.106 276.65 283.888 277.025 283.5C277.399 283.119 277.732 282.534 278.025 281.745L278.596 280.153L272.83 264.325H274.8L279.453 277.602H279.596L284.25 264.325H286.219L279.586 282.48C279.307 283.235 278.964 283.864 278.555 284.368C278.147 284.878 277.674 285.255 277.137 285.5C276.606 285.752 276.011 285.878 275.351 285.878ZM290.24 280.153C289.839 280.153 289.492 280.01 289.199 279.724C288.913 279.432 288.77 279.085 288.77 278.684C288.77 278.275 288.913 277.928 289.199 277.643C289.492 277.357 289.839 277.214 290.24 277.214C290.648 277.214 290.995 277.357 291.281 277.643C291.567 277.928 291.709 278.275 291.709 278.684C291.709 278.949 291.641 279.194 291.505 279.418C291.376 279.643 291.199 279.823 290.975 279.959C290.757 280.088 290.512 280.153 290.24 280.153ZM297.957 280.153C297.556 280.153 297.209 280.01 296.916 279.724C296.631 279.432 296.488 279.085 296.488 278.684C296.488 278.275 296.631 277.928 296.916 277.643C297.209 277.357 297.556 277.214 297.957 277.214C298.366 277.214 298.712 277.357 298.998 277.643C299.284 277.928 299.427 278.275 299.427 278.684C299.427 278.949 299.359 279.194 299.223 279.418C299.093 279.643 298.917 279.823 298.692 279.959C298.474 280.088 298.229 280.153 297.957 280.153ZM305.675 280.153C305.273 280.153 304.926 280.01 304.634 279.724C304.348 279.432 304.205 279.085 304.205 278.684C304.205 278.275 304.348 277.928 304.634 277.643C304.926 277.357 305.273 277.214 305.675 277.214C306.083 277.214 306.43 277.357 306.716 277.643C307.001 277.928 307.144 278.275 307.144 278.684C307.144 278.949 307.076 279.194 306.94 279.418C306.811 279.643 306.634 279.823 306.409 279.959C306.192 280.088 305.947 280.153 305.675 280.153Z" fill="#9D9D9D"/>
<path d="M86.7757 429V408.1H93.8273C95.1879 408.1 96.3206 408.339 97.2255 408.815C98.1371 409.291 98.8208 409.941 99.2767 410.764C99.7325 411.587 99.9604 412.523 99.9604 413.57C99.9604 414.441 99.8141 415.186 99.5216 415.805C99.229 416.424 98.831 416.924 98.3276 417.305C97.8242 417.686 97.2629 417.962 96.6438 418.132V418.295C97.3173 418.343 97.9704 418.581 98.6031 419.009C99.2358 419.431 99.7563 420.023 100.164 420.785C100.573 421.547 100.777 422.459 100.777 423.52C100.777 424.574 100.542 425.517 100.073 426.347C99.6032 427.17 98.8821 427.82 97.9092 428.296C96.9431 428.765 95.7118 429 94.215 429H86.7757ZM88.684 427.286H94.215C95.8274 427.286 97.018 426.928 97.7867 426.214C98.5623 425.5 98.9501 424.602 98.9501 423.52C98.9501 422.724 98.7562 422.003 98.3684 421.357C97.9874 420.703 97.4466 420.186 96.7459 419.805C96.0519 419.424 95.2355 419.234 94.2967 419.234H88.684V427.286ZM88.684 417.54H94.0007C94.8239 417.54 95.5451 417.37 96.1642 417.03C96.7833 416.69 97.2663 416.22 97.6133 415.621C97.9602 415.023 98.1337 414.339 98.1337 413.57C98.1337 412.461 97.7731 411.56 97.052 410.866C96.3309 410.165 95.2559 409.815 93.8273 409.815H88.684V417.54ZM105.004 429V413.325H111.178C112.845 413.325 114.158 413.686 115.117 414.407C116.083 415.128 116.566 416.101 116.566 417.326C116.566 418.258 116.297 419.003 115.76 419.561C115.223 420.118 114.501 420.513 113.597 420.744C114.202 420.846 114.763 421.067 115.28 421.408C115.804 421.748 116.229 422.197 116.556 422.755C116.883 423.313 117.046 423.979 117.046 424.755C117.046 425.571 116.842 426.299 116.434 426.939C116.025 427.578 115.45 428.082 114.709 428.449C113.967 428.816 113.09 429 112.076 429H105.004ZM106.739 427.316H112.076C113.035 427.316 113.794 427.071 114.352 426.581C114.91 426.085 115.189 425.425 115.189 424.602C115.189 423.724 114.923 423.023 114.393 422.5C113.869 421.969 113.165 421.704 112.28 421.704H106.739V427.316ZM106.739 420.091H111.29C111.998 420.091 112.61 419.982 113.127 419.765C113.644 419.547 114.042 419.241 114.321 418.846C114.607 418.445 114.746 417.975 114.74 417.438C114.74 416.669 114.427 416.074 113.801 415.652C113.175 415.223 112.301 415.009 111.178 415.009H106.739V420.091ZM127.365 429.327C125.903 429.327 124.637 428.986 123.569 428.306C122.501 427.619 121.675 426.67 121.09 425.459C120.511 424.241 120.222 422.84 120.222 421.255C120.222 419.676 120.511 418.275 121.09 417.05C121.675 415.819 122.481 414.856 123.508 414.162C124.542 413.461 125.736 413.111 127.09 413.111C127.94 413.111 128.76 413.268 129.549 413.58C130.338 413.887 131.046 414.359 131.672 414.999C132.305 415.632 132.805 416.431 133.172 417.397C133.539 418.356 133.723 419.492 133.723 420.806V421.704H121.477V420.101H131.866C131.866 419.094 131.662 418.19 131.254 417.387C130.852 416.577 130.291 415.938 129.57 415.468C128.855 414.999 128.029 414.764 127.09 414.764C126.097 414.764 125.222 415.03 124.467 415.56C123.712 416.091 123.12 416.792 122.692 417.662C122.27 418.533 122.056 419.486 122.049 420.52V421.479C122.049 422.724 122.263 423.813 122.692 424.745C123.127 425.67 123.743 426.388 124.539 426.898C125.335 427.408 126.277 427.663 127.365 427.663C128.107 427.663 128.757 427.548 129.315 427.316C129.879 427.085 130.352 426.775 130.733 426.388C131.121 425.993 131.413 425.561 131.611 425.092L133.335 425.653C133.097 426.313 132.706 426.922 132.162 427.479C131.624 428.037 130.951 428.486 130.141 428.827C129.338 429.16 128.413 429.327 127.365 429.327ZM135.869 433.46V427.286H137.226C137.566 426.905 137.862 426.493 138.114 426.051C138.365 425.609 138.583 425.105 138.767 424.54C138.957 423.969 139.117 423.306 139.246 422.551C139.376 421.789 139.485 420.901 139.573 419.887L140.144 413.325H149.421V427.286H151.747V433.46H149.931V429H137.695V433.46H135.869ZM139.318 427.286H147.604V415.04H141.839L141.369 419.887C141.206 421.533 140.974 422.969 140.675 424.194C140.376 425.418 139.923 426.449 139.318 427.286ZM157.026 426.418L165.302 413.325H167.476V429H165.659V415.907L157.414 429H155.209V413.325H157.026V426.418ZM170.078 415.04V413.325H182.324V415.04H177.14V429H175.323V415.04H170.078ZM191.687 429.327C190.224 429.327 188.959 428.986 187.89 428.306C186.822 427.619 185.996 426.67 185.411 425.459C184.832 424.241 184.543 422.84 184.543 421.255C184.543 419.676 184.832 418.275 185.411 417.05C185.996 415.819 186.802 414.856 187.829 414.162C188.863 413.461 190.057 413.111 191.411 413.111C192.261 413.111 193.081 413.268 193.87 413.58C194.66 413.887 195.367 414.359 195.993 414.999C196.626 415.632 197.126 416.431 197.493 417.397C197.861 418.356 198.044 419.492 198.044 420.806V421.704H185.798V420.101H196.187C196.187 419.094 195.983 418.19 195.575 417.387C195.173 416.577 194.612 415.938 193.891 415.468C193.177 414.999 192.35 414.764 191.411 414.764C190.418 414.764 189.544 415.03 188.788 415.56C188.033 416.091 187.441 416.792 187.013 417.662C186.591 418.533 186.377 419.486 186.37 420.52V421.479C186.37 422.724 186.584 423.813 187.013 424.745C187.448 425.67 188.064 426.388 188.86 426.898C189.656 427.408 190.598 427.663 191.687 427.663C192.428 427.663 193.078 427.548 193.636 427.316C194.2 427.085 194.673 426.775 195.054 426.388C195.442 425.993 195.735 425.561 195.932 425.092L197.656 425.653C197.418 426.313 197.027 426.922 196.483 427.479C195.945 428.037 195.272 428.486 194.462 428.827C193.66 429.16 192.734 429.327 191.687 429.327ZM210.15 429V413.325H222.018V429H220.191V415.04H211.976V429H210.15ZM231.205 429.357C230.259 429.357 229.395 429.173 228.613 428.806C227.83 428.432 227.208 427.894 226.745 427.194C226.283 426.486 226.051 425.629 226.051 424.622C226.051 423.847 226.198 423.193 226.49 422.663C226.783 422.132 227.198 421.697 227.735 421.357C228.273 421.016 228.909 420.748 229.644 420.55C230.378 420.353 231.188 420.2 232.072 420.091C232.95 419.982 233.691 419.887 234.297 419.805C234.909 419.724 235.375 419.595 235.695 419.418C236.015 419.241 236.175 418.955 236.175 418.56V418.193C236.175 417.125 235.855 416.285 235.215 415.672C234.583 415.053 233.671 414.744 232.48 414.744C231.351 414.744 230.429 414.992 229.715 415.489C229.007 415.985 228.511 416.57 228.225 417.244L226.5 416.622C226.854 415.764 227.344 415.081 227.97 414.57C228.596 414.053 229.297 413.683 230.072 413.458C230.848 413.227 231.633 413.111 232.429 413.111C233.028 413.111 233.651 413.189 234.297 413.346C234.95 413.502 235.556 413.774 236.113 414.162C236.671 414.543 237.124 415.077 237.471 415.764C237.818 416.445 237.991 417.309 237.991 418.356V429H236.175V426.52H236.062C235.845 426.983 235.522 427.432 235.093 427.867C234.664 428.303 234.127 428.66 233.481 428.939C232.834 429.218 232.076 429.357 231.205 429.357ZM231.45 427.694C232.416 427.694 233.253 427.479 233.96 427.051C234.668 426.622 235.212 426.054 235.593 425.347C235.981 424.632 236.175 423.847 236.175 422.989V420.724C236.039 420.853 235.811 420.969 235.491 421.071C235.178 421.173 234.814 421.265 234.399 421.346C233.991 421.421 233.583 421.486 233.174 421.54C232.766 421.595 232.399 421.642 232.072 421.683C231.188 421.792 230.433 421.962 229.807 422.193C229.181 422.425 228.701 422.744 228.368 423.153C228.035 423.554 227.868 424.071 227.868 424.704C227.868 425.656 228.208 426.394 228.888 426.918C229.569 427.435 230.423 427.694 231.45 427.694ZM242.823 434.878V413.325H244.589V416.315H244.803C245.021 415.846 245.32 415.366 245.701 414.876C246.082 414.38 246.585 413.961 247.211 413.621C247.844 413.281 248.64 413.111 249.599 413.111C250.892 413.111 252.021 413.451 252.987 414.132C253.96 414.805 254.715 415.751 255.253 416.968C255.797 418.179 256.069 419.591 256.069 421.203C256.069 422.823 255.797 424.241 255.253 425.459C254.715 426.677 253.96 427.626 252.987 428.306C252.021 428.986 250.899 429.327 249.62 429.327C248.674 429.327 247.881 429.156 247.242 428.816C246.609 428.476 246.095 428.058 245.701 427.561C245.313 427.058 245.014 426.568 244.803 426.092H244.64V434.878H242.823ZM244.619 421.173C244.619 422.438 244.806 423.561 245.18 424.54C245.561 425.513 246.106 426.279 246.813 426.837C247.528 427.388 248.392 427.663 249.405 427.663C250.446 427.663 251.324 427.377 252.038 426.806C252.759 426.228 253.307 425.449 253.681 424.469C254.062 423.489 254.253 422.391 254.253 421.173C254.253 419.969 254.065 418.884 253.691 417.918C253.324 416.951 252.78 416.186 252.058 415.621C251.337 415.05 250.453 414.764 249.405 414.764C248.385 414.764 247.517 415.04 246.803 415.591C246.089 416.135 245.544 416.89 245.17 417.856C244.803 418.816 244.619 419.921 244.619 421.173ZM266.146 429.327C264.792 429.327 263.595 428.983 262.554 428.296C261.52 427.609 260.71 426.66 260.125 425.449C259.54 424.231 259.248 422.826 259.248 421.234C259.248 419.629 259.54 418.217 260.125 416.999C260.71 415.775 261.52 414.822 262.554 414.142C263.595 413.455 264.792 413.111 266.146 413.111C267.5 413.111 268.694 413.455 269.728 414.142C270.762 414.829 271.572 415.781 272.157 416.999C272.749 418.217 273.045 419.629 273.045 421.234C273.045 422.826 272.752 424.231 272.167 425.449C271.582 426.66 270.769 427.609 269.728 428.296C268.694 428.983 267.5 429.327 266.146 429.327ZM266.146 427.663C267.235 427.663 268.157 427.371 268.912 426.786C269.667 426.2 270.238 425.422 270.626 424.449C271.021 423.476 271.218 422.404 271.218 421.234C271.218 420.064 271.021 418.989 270.626 418.009C270.238 417.03 269.667 416.244 268.912 415.652C268.157 415.06 267.235 414.764 266.146 414.764C265.065 414.764 264.143 415.06 263.381 415.652C262.626 416.244 262.051 417.03 261.656 418.009C261.268 418.989 261.074 420.064 261.074 421.234C261.074 422.404 261.268 423.476 261.656 424.449C262.051 425.422 262.626 426.2 263.381 426.786C264.136 427.371 265.058 427.663 266.146 427.663ZM275.491 429V427.286H275.981C276.539 427.286 276.988 427.184 277.328 426.979C277.675 426.769 277.944 426.415 278.134 425.918C278.325 425.422 278.468 424.745 278.563 423.887C278.658 423.03 278.733 421.955 278.788 420.663L279.124 413.325H289.084V429H287.258V415.04H280.849L280.553 421.275C280.492 422.547 280.39 423.666 280.247 424.632C280.111 425.598 279.886 426.405 279.573 427.051C279.267 427.697 278.839 428.184 278.287 428.51C277.743 428.837 277.029 429 276.144 429H275.491ZM295.409 419.377H299.991C301.753 419.377 303.113 419.805 304.073 420.663C305.032 421.52 305.511 422.68 305.511 424.142C305.511 425.115 305.297 425.966 304.869 426.694C304.44 427.422 303.814 427.99 302.991 428.398C302.168 428.799 301.168 429 299.991 429H293.898V413.325H295.715V427.286H299.991C301.1 427.286 301.994 427.02 302.675 426.49C303.355 425.959 303.695 425.204 303.695 424.224C303.695 423.224 303.355 422.452 302.675 421.908C301.994 421.363 301.1 421.091 299.991 421.091H295.409V419.377ZM310.951 429.153C310.549 429.153 310.202 429.01 309.91 428.724C309.624 428.432 309.481 428.085 309.481 427.684C309.481 427.275 309.624 426.928 309.91 426.643C310.202 426.357 310.549 426.214 310.951 426.214C311.359 426.214 311.706 426.357 311.992 426.643C312.277 426.928 312.42 427.275 312.42 427.684C312.42 427.949 312.352 428.194 312.216 428.418C312.087 428.643 311.91 428.823 311.685 428.959C311.468 429.088 311.223 429.153 310.951 429.153ZM318.668 429.153C318.267 429.153 317.92 429.01 317.627 428.724C317.341 428.432 317.199 428.085 317.199 427.684C317.199 427.275 317.341 426.928 317.627 426.643C317.92 426.357 318.267 426.214 318.668 426.214C319.076 426.214 319.423 426.357 319.709 426.643C319.995 426.928 320.138 427.275 320.138 427.684C320.138 427.949 320.07 428.194 319.933 428.418C319.804 428.643 319.627 428.823 319.403 428.959C319.185 429.088 318.94 429.153 318.668 429.153ZM326.385 429.153C325.984 429.153 325.637 429.01 325.345 428.724C325.059 428.432 324.916 428.085 324.916 427.684C324.916 427.275 325.059 426.928 325.345 426.643C325.637 426.357 325.984 426.214 326.385 426.214C326.794 426.214 327.141 426.357 327.426 426.643C327.712 426.928 327.855 427.275 327.855 427.684C327.855 427.949 327.787 428.194 327.651 428.418C327.522 428.643 327.345 428.823 327.12 428.959C326.902 429.088 326.658 429.153 326.385 429.153Z" fill="#9D9D9D"/>
<path d="M143.819 89H137.413L151.807 49H158.78L173.174 89H166.768L155.459 56.2656H155.147L143.819 89ZM144.893 73.3359H165.674V78.4141H144.893V73.3359ZM178.482 89V59H190.923C194.309 59 196.991 59.7227 198.97 61.168C200.949 62.6003 201.939 64.5469 201.939 67.0078C201.939 68.7656 201.379 70.1589 200.259 71.1875C199.139 72.2161 197.655 72.9063 195.806 73.2578C197.147 73.4141 198.378 73.8177 199.498 74.4687C200.617 75.1068 201.516 75.9661 202.193 77.0469C202.883 78.1276 203.228 79.4167 203.228 80.9141C203.228 82.5026 202.818 83.9089 201.998 85.1328C201.177 86.3437 199.986 87.2943 198.423 87.9844C196.874 88.6615 195.005 89 192.818 89H178.482ZM183.97 84.1172H192.818C194.263 84.1172 195.396 83.7721 196.216 83.082C197.037 82.3919 197.447 81.4544 197.447 80.2695C197.447 78.8763 197.037 77.7826 196.216 76.9883C195.396 76.181 194.263 75.7773 192.818 75.7773H183.97V84.1172ZM183.97 71.5H190.982C192.076 71.5 193.013 71.3437 193.794 71.0312C194.589 70.7187 195.194 70.276 195.611 69.7031C196.041 69.1172 196.255 68.4271 196.255 67.6328C196.255 66.474 195.78 65.569 194.83 64.918C193.879 64.2669 192.577 63.9414 190.923 63.9414H183.97V71.5ZM207.955 64.0391V59H233.267V64.0391H223.482V89H217.779V64.0391H207.955ZM250.684 89.6055C247.872 89.6055 245.417 88.9609 243.321 87.6719C241.224 86.3828 239.597 84.5794 238.438 82.2617C237.279 79.944 236.7 77.2357 236.7 74.1367C236.7 71.0247 237.279 68.3034 238.438 65.9727C239.597 63.6419 241.224 61.832 243.321 60.543C245.417 59.2539 247.872 58.6094 250.684 58.6094C253.497 58.6094 255.951 59.2539 258.047 60.543C260.144 61.832 261.771 63.6419 262.93 65.9727C264.089 68.3034 264.668 71.0247 264.668 74.1367C264.668 77.2357 264.089 79.944 262.93 82.2617C261.771 84.5794 260.144 86.3828 258.047 87.6719C255.951 88.9609 253.497 89.6055 250.684 89.6055ZM250.704 84.7031C252.527 84.7031 254.037 84.2214 255.235 83.2578C256.433 82.2943 257.318 81.0117 257.891 79.4102C258.477 77.8086 258.77 76.0443 258.77 74.1172C258.77 72.2031 258.477 70.4453 257.891 68.8437C257.318 67.2292 256.433 65.9336 255.235 64.957C254.037 63.9805 252.527 63.4922 250.704 63.4922C248.868 63.4922 247.344 63.9805 246.133 64.957C244.935 65.9336 244.043 67.2292 243.458 68.8437C242.885 70.4453 242.598 72.2031 242.598 74.1172C242.598 76.0443 242.885 77.8086 243.458 79.4102C244.043 81.0117 244.935 82.2943 246.133 83.2578C247.344 84.2214 248.868 84.7031 250.704 84.7031ZM271.187 100.25V59H276.89V63.8633H277.378C277.717 63.2383 278.205 62.5156 278.843 61.6953C279.481 60.875 280.367 60.1589 281.5 59.5469C282.632 58.9219 284.13 58.6094 285.992 58.6094C288.414 58.6094 290.575 59.2214 292.476 60.4453C294.377 61.6693 295.868 63.4336 296.949 65.7383C298.042 68.043 298.589 70.8164 298.589 74.0586C298.589 77.3008 298.049 80.0807 296.968 82.3984C295.888 84.7031 294.403 86.4805 292.515 87.7305C290.627 88.9674 288.472 89.5859 286.05 89.5859C284.227 89.5859 282.736 89.2799 281.578 88.668C280.432 88.056 279.533 87.3398 278.882 86.5195C278.231 85.6992 277.73 84.9701 277.378 84.332H277.027V100.25H271.187ZM276.91 74C276.91 76.1094 277.216 77.9583 277.828 79.5469C278.44 81.1354 279.325 82.3789 280.484 83.2773C281.643 84.1628 283.062 84.6055 284.742 84.6055C286.486 84.6055 287.945 84.1432 289.117 83.2187C290.289 82.2812 291.174 81.0117 291.773 79.4102C292.385 77.8086 292.691 76.0052 292.691 74C292.691 72.0208 292.391 70.2435 291.792 68.668C291.207 67.0924 290.321 65.849 289.136 64.9375C287.964 64.026 286.5 63.5703 284.742 63.5703C283.049 63.5703 281.617 64.0065 280.445 64.8789C279.286 65.7513 278.407 66.9687 277.808 68.5312C277.209 70.0937 276.91 71.9167 276.91 74ZM310.855 80.8164L324.078 59H330.367V89H324.644V67.1641L311.48 89H305.132V59H310.855V80.8164ZM336.441 81.0703H342.417C342.496 82.2943 343.049 83.2383 344.078 83.9023C345.119 84.5664 346.467 84.8984 348.121 84.8984C349.8 84.8984 351.233 84.5404 352.417 83.8242C353.602 83.0951 354.195 81.9687 354.195 80.4453C354.195 79.5339 353.967 78.7396 353.511 78.0625C353.069 77.3724 352.437 76.8385 351.617 76.4609C350.809 76.0833 349.852 75.8945 348.746 75.8945H343.863V71.3047H348.746C350.399 71.3047 351.636 70.9271 352.457 70.1719C353.277 69.4167 353.687 68.4727 353.687 67.3398C353.687 66.1159 353.244 65.1328 352.359 64.3906C351.486 63.6354 350.269 63.2578 348.707 63.2578C347.118 63.2578 345.796 63.6159 344.742 64.332C343.687 65.0352 343.134 65.9466 343.082 67.0664H337.183C337.222 65.3867 337.73 63.9154 338.707 62.6523C339.696 61.3763 341.024 60.3867 342.691 59.6836C344.371 58.9674 346.278 58.6094 348.414 58.6094C350.64 58.6094 352.567 58.9674 354.195 59.6836C355.822 60.3997 357.079 61.3893 357.964 62.6523C358.863 63.9154 359.312 65.3672 359.312 67.0078C359.312 68.6615 358.817 70.0156 357.828 71.0703C356.851 72.112 355.575 72.8607 354 73.3164V73.6289C355.158 73.707 356.187 74.0586 357.085 74.6836C357.984 75.3086 358.687 76.1354 359.195 77.1641C359.703 78.1927 359.957 79.3581 359.957 80.6602C359.957 82.4961 359.449 84.0846 358.433 85.4258C357.431 86.7669 356.037 87.8021 354.253 88.5312C352.483 89.2474 350.458 89.6055 348.179 89.6055C345.966 89.6055 343.98 89.2604 342.222 88.5703C340.477 87.8672 339.091 86.8776 338.062 85.6016C337.046 84.3255 336.506 82.8151 336.441 81.0703ZM374.717 89.6641C372.816 89.6641 371.097 89.3125 369.561 88.6094C368.025 87.8932 366.807 86.8581 365.909 85.5039C365.023 84.1497 364.581 82.4896 364.581 80.5234C364.581 78.8307 364.906 77.4375 365.557 76.3437C366.208 75.25 367.087 74.3841 368.194 73.7461C369.301 73.1081 370.538 72.6263 371.905 72.3008C373.272 71.9753 374.665 71.7279 376.084 71.5586C377.881 71.3503 379.34 71.181 380.459 71.0508C381.579 70.9076 382.393 70.6797 382.901 70.3672C383.409 70.0547 383.663 69.5469 383.663 68.8437V68.707C383.663 67.0013 383.181 65.6797 382.217 64.7422C381.267 63.8047 379.847 63.3359 377.959 63.3359C375.993 63.3359 374.444 63.7721 373.311 64.6445C372.191 65.5039 371.417 66.4609 370.987 67.5156L365.499 66.2656C366.15 64.4427 367.1 62.9714 368.35 61.8516C369.613 60.7187 371.065 59.8984 372.706 59.3906C374.346 58.8698 376.071 58.6094 377.881 58.6094C379.079 58.6094 380.349 58.7526 381.69 59.0391C383.044 59.3125 384.307 59.8203 385.479 60.5625C386.664 61.3047 387.634 62.3659 388.389 63.7461C389.144 65.1133 389.522 66.8906 389.522 69.0781V89H383.819V84.8984H383.584C383.207 85.6536 382.64 86.3958 381.885 87.125C381.13 87.8542 380.16 88.4596 378.975 88.9414C377.79 89.4232 376.371 89.6641 374.717 89.6641ZM375.987 84.9766C377.601 84.9766 378.982 84.6576 380.127 84.0195C381.286 83.3815 382.165 82.5482 382.764 81.5195C383.376 80.4779 383.682 79.3646 383.682 78.1797V74.3125C383.474 74.5208 383.07 74.7161 382.471 74.8984C381.885 75.0677 381.215 75.2174 380.459 75.3477C379.704 75.4648 378.969 75.5755 378.252 75.6797C377.536 75.7708 376.937 75.849 376.456 75.9141C375.323 76.0573 374.288 76.2982 373.35 76.6367C372.426 76.9753 371.683 77.4635 371.124 78.1016C370.577 78.7266 370.303 79.5599 370.303 80.6016C370.303 82.0469 370.837 83.1406 371.905 83.8828C372.972 84.612 374.333 84.9766 375.987 84.9766ZM421.773 59V84.2148H426.167V98.668H420.406V89H397.3V59H403.023V83.9609H416.07V59H421.773ZM438.365 80.8164L451.587 59H457.876V89H452.154V67.1641L438.99 89H432.642V59H438.365V80.8164ZM483.619 89V63.9805H476.431C474.725 63.9805 473.397 64.3776 472.447 65.1719C471.496 65.9661 471.021 67.0078 471.021 68.2969C471.021 69.5729 471.457 70.6016 472.33 71.3828C473.215 72.151 474.452 72.5352 476.041 72.5352H485.318V77.2617H476.041C473.827 77.2617 471.913 76.8971 470.298 76.168C468.697 75.4258 467.46 74.3776 466.587 73.0234C465.728 71.6693 465.298 70.0677 465.298 68.2188C465.298 66.3307 465.741 64.7031 466.626 63.3359C467.525 61.9557 468.807 60.888 470.474 60.1328C472.154 59.3776 474.139 59 476.431 59H489.107V89H483.619ZM463.931 89L472.388 73.8437H478.365L469.908 89H463.931Z" fill="#101727"/>
<path d="M129.784 142V126H135.644C136.779 126 137.719 126.187 138.464 126.562C139.209 126.932 139.766 127.435 140.136 128.07C140.506 128.701 140.69 129.411 140.69 130.203C140.69 130.87 140.568 131.432 140.323 131.891C140.078 132.344 139.75 132.708 139.339 132.984C138.933 133.255 138.485 133.453 137.995 133.578V133.734C138.526 133.76 139.045 133.932 139.55 134.25C140.06 134.562 140.482 135.008 140.815 135.586C141.149 136.164 141.315 136.867 141.315 137.695C141.315 138.513 141.123 139.247 140.737 139.898C140.357 140.544 139.769 141.057 138.972 141.437C138.175 141.812 137.157 142 135.917 142H129.784ZM132.198 139.93H135.683C136.839 139.93 137.667 139.706 138.167 139.258C138.667 138.81 138.917 138.25 138.917 137.578C138.917 137.073 138.789 136.609 138.534 136.187C138.279 135.766 137.914 135.43 137.44 135.18C136.972 134.93 136.414 134.805 135.769 134.805H132.198V139.93ZM132.198 132.922H135.433C135.974 132.922 136.461 132.818 136.894 132.609C137.331 132.401 137.677 132.109 137.933 131.734C138.193 131.354 138.323 130.906 138.323 130.391C138.323 129.729 138.091 129.174 137.628 128.727C137.164 128.279 136.453 128.055 135.495 128.055H132.198V132.922ZM143.991 142V130H148.968C150.322 130 151.395 130.289 152.187 130.867C152.978 131.44 153.374 132.219 153.374 133.203C153.374 133.906 153.15 134.464 152.702 134.875C152.254 135.286 151.66 135.563 150.921 135.703C151.457 135.766 151.95 135.927 152.397 136.187C152.845 136.443 153.205 136.786 153.476 137.219C153.752 137.651 153.89 138.167 153.89 138.766C153.89 139.401 153.726 139.964 153.397 140.453C153.069 140.937 152.593 141.318 151.968 141.594C151.348 141.865 150.601 142 149.726 142H143.991ZM146.187 140.047H149.726C150.304 140.047 150.757 139.909 151.085 139.633C151.413 139.357 151.577 138.982 151.577 138.508C151.577 137.951 151.413 137.513 151.085 137.195C150.757 136.872 150.304 136.711 149.726 136.711H146.187V140.047ZM146.187 135H148.991C149.429 135 149.804 134.937 150.116 134.812C150.434 134.687 150.676 134.51 150.843 134.281C151.015 134.047 151.101 133.771 151.101 133.453C151.101 132.99 150.91 132.628 150.53 132.367C150.15 132.107 149.629 131.977 148.968 131.977H146.187V135ZM161.624 142.242C160.442 142.242 159.424 141.99 158.569 141.484C157.72 140.974 157.064 140.258 156.601 139.336C156.142 138.409 155.913 137.323 155.913 136.078C155.913 134.849 156.142 133.766 156.601 132.828C157.064 131.891 157.71 131.159 158.538 130.633C159.371 130.107 160.345 129.844 161.46 129.844C162.137 129.844 162.793 129.956 163.429 130.18C164.064 130.404 164.634 130.755 165.14 131.234C165.645 131.714 166.043 132.336 166.335 133.102C166.627 133.862 166.772 134.786 166.772 135.875V136.703H157.233V134.953H164.483C164.483 134.339 164.358 133.794 164.108 133.32C163.858 132.841 163.507 132.464 163.054 132.187C162.606 131.911 162.08 131.773 161.476 131.773C160.819 131.773 160.246 131.935 159.757 132.258C159.272 132.576 158.897 132.992 158.632 133.508C158.371 134.018 158.241 134.573 158.241 135.172V136.539C158.241 137.341 158.382 138.023 158.663 138.586C158.95 139.148 159.348 139.578 159.858 139.875C160.369 140.167 160.965 140.312 161.647 140.312C162.09 140.312 162.494 140.25 162.858 140.125C163.223 139.995 163.538 139.802 163.804 139.547C164.069 139.292 164.272 138.977 164.413 138.602L166.624 139C166.447 139.651 166.129 140.221 165.671 140.711C165.218 141.195 164.647 141.573 163.96 141.844C163.278 142.109 162.499 142.242 161.624 142.242ZM168.192 145.461V139.977H169.169C169.419 139.747 169.63 139.474 169.802 139.156C169.979 138.839 170.127 138.461 170.247 138.023C170.372 137.586 170.476 137.076 170.56 136.492C170.643 135.904 170.716 135.232 170.778 134.477L171.153 130H179.31V139.977H181.153V145.461H178.872V142H170.505V145.461H168.192ZM171.669 139.977H177.028V132H173.247L172.997 134.477C172.877 135.737 172.726 136.831 172.544 137.758C172.362 138.68 172.07 139.419 171.669 139.977ZM185.726 138.727L191.015 130H193.53V142H191.241V133.266L185.976 142H183.437V130H185.726V138.727ZM195.183 132.016V130H205.308V132.016H201.394V142H199.112V132.016H195.183ZM212.392 142.242C211.209 142.242 210.191 141.99 209.337 141.484C208.488 140.974 207.832 140.258 207.368 139.336C206.91 138.409 206.681 137.323 206.681 136.078C206.681 134.849 206.91 133.766 207.368 132.828C207.832 131.891 208.478 131.159 209.306 130.633C210.139 130.107 211.113 129.844 212.228 129.844C212.905 129.844 213.561 129.956 214.196 130.18C214.832 130.404 215.402 130.755 215.907 131.234C216.412 131.714 216.811 132.336 217.103 133.102C217.394 133.862 217.54 134.786 217.54 135.875V136.703H208.001V134.953H215.251C215.251 134.339 215.126 133.794 214.876 133.32C214.626 132.841 214.274 132.464 213.821 132.187C213.373 131.911 212.847 131.773 212.243 131.773C211.587 131.773 211.014 131.935 210.524 132.258C210.04 132.576 209.665 132.992 209.399 133.508C209.139 134.018 209.009 134.573 209.009 135.172V136.539C209.009 137.341 209.149 138.023 209.431 138.586C209.717 139.148 210.116 139.578 210.626 139.875C211.136 140.167 211.733 140.312 212.415 140.312C212.858 140.312 213.261 140.25 213.626 140.125C213.991 139.995 214.306 139.802 214.571 139.547C214.837 139.292 215.04 138.977 215.181 138.602L217.392 139C217.215 139.651 216.897 140.221 216.438 140.711C215.985 141.195 215.415 141.573 214.728 141.844C214.045 142.109 213.267 142.242 212.392 142.242ZM224.782 145.461V139.977H225.759C226.009 139.747 226.22 139.474 226.392 139.156C226.569 138.839 226.717 138.461 226.837 138.023C226.962 137.586 227.066 137.076 227.149 136.492C227.233 135.904 227.306 135.232 227.368 134.477L227.743 130H235.899V139.977H237.743V145.461H235.462V142H227.095V145.461H224.782ZM228.259 139.977H233.618V132H229.837L229.587 134.477C229.467 135.737 229.316 136.831 229.134 137.758C228.951 138.68 228.66 139.419 228.259 139.977ZM243.519 142.266C242.758 142.266 242.071 142.125 241.456 141.844C240.841 141.557 240.354 141.143 239.995 140.602C239.641 140.06 239.464 139.396 239.464 138.609C239.464 137.932 239.594 137.375 239.854 136.937C240.115 136.5 240.466 136.154 240.909 135.898C241.352 135.643 241.847 135.451 242.394 135.32C242.94 135.19 243.498 135.091 244.065 135.023C244.784 134.94 245.368 134.872 245.815 134.82C246.263 134.763 246.589 134.672 246.792 134.547C246.995 134.422 247.097 134.219 247.097 133.937V133.883C247.097 133.201 246.904 132.672 246.519 132.297C246.138 131.922 245.571 131.734 244.815 131.734C244.029 131.734 243.409 131.909 242.956 132.258C242.508 132.602 242.198 132.984 242.026 133.406L239.831 132.906C240.091 132.177 240.472 131.589 240.972 131.141C241.477 130.687 242.058 130.359 242.714 130.156C243.37 129.948 244.06 129.844 244.784 129.844C245.263 129.844 245.771 129.901 246.308 130.016C246.849 130.125 247.354 130.328 247.823 130.625C248.297 130.922 248.685 131.346 248.987 131.898C249.289 132.445 249.44 133.156 249.44 134.031V142H247.159V140.359H247.065C246.914 140.661 246.688 140.958 246.386 141.25C246.084 141.542 245.696 141.784 245.222 141.977C244.748 142.169 244.18 142.266 243.519 142.266ZM244.026 140.391C244.672 140.391 245.224 140.263 245.683 140.008C246.146 139.753 246.498 139.419 246.737 139.008C246.982 138.591 247.104 138.146 247.104 137.672V136.125C247.021 136.208 246.86 136.286 246.62 136.359C246.386 136.427 246.118 136.487 245.815 136.539C245.513 136.586 245.219 136.63 244.933 136.672C244.646 136.708 244.407 136.74 244.214 136.766C243.761 136.823 243.347 136.919 242.972 137.055C242.602 137.19 242.305 137.385 242.081 137.641C241.862 137.891 241.753 138.224 241.753 138.641C241.753 139.219 241.966 139.656 242.394 139.953C242.821 140.245 243.365 140.391 244.026 140.391ZM260.685 134.992V137.016H254.185V134.992H260.685ZM254.841 130V142H252.552V130H254.841ZM262.317 130V142H260.036V130H262.317ZM273.575 134.992V137.016H267.075V134.992H273.575ZM267.731 130V142H265.442V130H267.731ZM275.208 130V142H272.927V130H275.208ZM280.091 134.125H283.575C285.044 134.125 286.174 134.49 286.966 135.219C287.757 135.948 288.153 136.888 288.153 138.039C288.153 138.789 287.976 139.464 287.622 140.062C287.268 140.661 286.75 141.135 286.067 141.484C285.385 141.828 284.554 142 283.575 142H278.333V130H280.622V139.984H283.575C284.247 139.984 284.799 139.81 285.231 139.461C285.664 139.107 285.88 138.656 285.88 138.109C285.88 137.531 285.664 137.06 285.231 136.695C284.799 136.326 284.247 136.141 283.575 136.141H280.091V134.125ZM289.856 142V130H292.192V142H289.856ZM300.499 142.242C299.317 142.242 298.299 141.99 297.444 141.484C296.595 140.974 295.939 140.258 295.476 139.336C295.017 138.409 294.788 137.323 294.788 136.078C294.788 134.849 295.017 133.766 295.476 132.828C295.939 131.891 296.585 131.159 297.413 130.633C298.246 130.107 299.22 129.844 300.335 129.844C301.012 129.844 301.668 129.956 302.304 130.18C302.939 130.404 303.509 130.755 304.015 131.234C304.52 131.714 304.918 132.336 305.21 133.102C305.502 133.862 305.647 134.786 305.647 135.875V136.703H296.108V134.953H303.358C303.358 134.339 303.233 133.794 302.983 133.32C302.733 132.841 302.382 132.464 301.929 132.187C301.481 131.911 300.955 131.773 300.351 131.773C299.694 131.773 299.121 131.935 298.632 132.258C298.147 132.576 297.772 132.992 297.507 133.508C297.246 134.018 297.116 134.573 297.116 135.172V136.539C297.116 137.341 297.257 138.023 297.538 138.586C297.825 139.148 298.223 139.578 298.733 139.875C299.244 140.167 299.84 140.312 300.522 140.312C300.965 140.312 301.369 140.25 301.733 140.125C302.098 139.995 302.413 139.802 302.679 139.547C302.944 139.292 303.147 138.977 303.288 138.602L305.499 139C305.322 139.651 305.004 140.221 304.546 140.711C304.093 141.195 303.522 141.573 302.835 141.844C302.153 142.109 301.374 142.242 300.499 142.242ZM314.062 142V130H319.038C320.392 130 321.465 130.289 322.257 130.867C323.049 131.44 323.444 132.219 323.444 133.203C323.444 133.906 323.22 134.464 322.772 134.875C322.325 135.286 321.731 135.563 320.991 135.703C321.528 135.766 322.02 135.927 322.468 136.187C322.916 136.443 323.275 136.786 323.546 137.219C323.822 137.651 323.96 138.167 323.96 138.766C323.96 139.401 323.796 139.964 323.468 140.453C323.14 140.937 322.663 141.318 322.038 141.594C321.418 141.865 320.671 142 319.796 142H314.062ZM316.257 140.047H319.796C320.374 140.047 320.827 139.909 321.155 139.633C321.483 139.357 321.647 138.982 321.647 138.508C321.647 137.951 321.483 137.513 321.155 137.195C320.827 136.872 320.374 136.711 319.796 136.711H316.257V140.047ZM316.257 135H319.062C319.499 135 319.874 134.937 320.187 134.812C320.504 134.687 320.746 134.51 320.913 134.281C321.085 134.047 321.171 133.771 321.171 133.453C321.171 132.99 320.981 132.628 320.601 132.367C320.22 132.107 319.7 131.977 319.038 131.977H316.257V135ZM330.015 142.266C329.254 142.266 328.567 142.125 327.952 141.844C327.338 141.557 326.851 141.143 326.491 140.602C326.137 140.06 325.96 139.396 325.96 138.609C325.96 137.932 326.09 137.375 326.351 136.937C326.611 136.5 326.963 136.154 327.405 135.898C327.848 135.643 328.343 135.451 328.89 135.32C329.437 135.19 329.994 135.091 330.562 135.023C331.28 134.94 331.864 134.872 332.312 134.82C332.759 134.763 333.085 134.672 333.288 134.547C333.491 134.422 333.593 134.219 333.593 133.937V133.883C333.593 133.201 333.4 132.672 333.015 132.297C332.634 131.922 332.067 131.734 331.312 131.734C330.525 131.734 329.905 131.909 329.452 132.258C329.004 132.602 328.694 132.984 328.522 133.406L326.327 132.906C326.588 132.177 326.968 131.589 327.468 131.141C327.973 130.687 328.554 130.359 329.21 130.156C329.866 129.948 330.556 129.844 331.28 129.844C331.759 129.844 332.267 129.901 332.804 130.016C333.345 130.125 333.851 130.328 334.319 130.625C334.793 130.922 335.181 131.346 335.483 131.898C335.785 132.445 335.937 133.156 335.937 134.031V142H333.655V140.359H333.562C333.41 140.661 333.184 140.958 332.882 141.25C332.58 141.542 332.192 141.784 331.718 141.977C331.244 142.169 330.676 142.266 330.015 142.266ZM330.522 140.391C331.168 140.391 331.72 140.263 332.179 140.008C332.642 139.753 332.994 139.419 333.233 139.008C333.478 138.591 333.601 138.146 333.601 137.672V136.125C333.517 136.208 333.356 136.286 333.116 136.359C332.882 136.427 332.614 136.487 332.312 136.539C332.009 136.586 331.715 136.63 331.429 136.672C331.142 136.708 330.903 136.74 330.71 136.766C330.257 136.823 329.843 136.919 329.468 137.055C329.098 137.19 328.801 137.385 328.577 137.641C328.358 137.891 328.249 138.224 328.249 138.641C328.249 139.219 328.463 139.656 328.89 139.953C329.317 140.245 329.861 140.391 330.522 140.391ZM339.048 130H341.337V139.977H345.485V130H347.774V139.977H351.923V130H354.212V142H339.048V130ZM362.503 142.242C361.321 142.242 360.302 141.99 359.448 141.484C358.599 140.974 357.943 140.258 357.479 139.336C357.021 138.409 356.792 137.323 356.792 136.078C356.792 134.849 357.021 133.766 357.479 132.828C357.943 131.891 358.589 131.159 359.417 130.633C360.25 130.107 361.224 129.844 362.339 129.844C363.016 129.844 363.672 129.956 364.308 130.18C364.943 130.404 365.513 130.755 366.019 131.234C366.524 131.714 366.922 132.336 367.214 133.102C367.506 133.862 367.651 134.786 367.651 135.875V136.703H358.112V134.953H365.362C365.362 134.339 365.237 133.794 364.987 133.32C364.737 132.841 364.386 132.464 363.933 132.187C363.485 131.911 362.959 131.773 362.354 131.773C361.698 131.773 361.125 131.935 360.636 132.258C360.151 132.576 359.776 132.992 359.511 133.508C359.25 134.018 359.12 134.573 359.12 135.172V136.539C359.12 137.341 359.261 138.023 359.542 138.586C359.828 139.148 360.227 139.578 360.737 139.875C361.248 140.167 361.844 140.312 362.526 140.312C362.969 140.312 363.373 140.25 363.737 140.125C364.102 139.995 364.417 139.802 364.683 139.547C364.948 139.292 365.151 138.977 365.292 138.602L367.503 139C367.326 139.651 367.008 140.221 366.55 140.711C366.097 141.195 365.526 141.573 364.839 141.844C364.157 142.109 363.378 142.242 362.503 142.242ZM377.915 130V132.016H372.548V142H370.243V130H377.915ZM384.88 142.242C383.755 142.242 382.773 141.984 381.935 141.469C381.096 140.953 380.445 140.232 379.981 139.305C379.518 138.378 379.286 137.294 379.286 136.055C379.286 134.81 379.518 133.721 379.981 132.789C380.445 131.857 381.096 131.133 381.935 130.617C382.773 130.102 383.755 129.844 384.88 129.844C386.005 129.844 386.987 130.102 387.825 130.617C388.664 131.133 389.315 131.857 389.778 132.789C390.242 133.721 390.474 134.81 390.474 136.055C390.474 137.294 390.242 138.378 389.778 139.305C389.315 140.232 388.664 140.953 387.825 141.469C386.987 141.984 386.005 142.242 384.88 142.242ZM384.888 140.281C385.617 140.281 386.221 140.089 386.7 139.703C387.179 139.318 387.534 138.805 387.763 138.164C387.997 137.523 388.114 136.818 388.114 136.047C388.114 135.281 387.997 134.578 387.763 133.937C387.534 133.292 387.179 132.773 386.7 132.383C386.221 131.992 385.617 131.797 384.888 131.797C384.153 131.797 383.544 131.992 383.06 132.383C382.58 132.773 382.224 133.292 381.989 133.937C381.76 134.578 381.646 135.281 381.646 136.047C381.646 136.818 381.76 137.523 381.989 138.164C382.224 138.805 382.58 139.318 383.06 139.703C383.544 140.089 384.153 140.281 384.888 140.281ZM402.396 142.266C401.635 142.266 400.948 142.125 400.333 141.844C399.718 141.557 399.231 141.143 398.872 140.602C398.518 140.06 398.341 139.396 398.341 138.609C398.341 137.932 398.471 137.375 398.731 136.937C398.992 136.5 399.343 136.154 399.786 135.898C400.229 135.643 400.724 135.451 401.271 135.32C401.817 135.19 402.375 135.091 402.942 135.023C403.661 134.94 404.244 134.872 404.692 134.82C405.14 134.763 405.466 134.672 405.669 134.547C405.872 134.422 405.974 134.219 405.974 133.937V133.883C405.974 133.201 405.781 132.672 405.396 132.297C405.015 131.922 404.448 131.734 403.692 131.734C402.906 131.734 402.286 131.909 401.833 132.258C401.385 132.602 401.075 132.984 400.903 133.406L398.708 132.906C398.968 132.177 399.349 131.589 399.849 131.141C400.354 130.687 400.935 130.359 401.591 130.156C402.247 129.948 402.937 129.844 403.661 129.844C404.14 129.844 404.648 129.901 405.185 130.016C405.726 130.125 406.231 130.328 406.7 130.625C407.174 130.922 407.562 131.346 407.864 131.898C408.166 132.445 408.317 133.156 408.317 134.031V142H406.036V140.359H405.942C405.791 140.661 405.565 140.958 405.263 141.25C404.961 141.542 404.573 141.784 404.099 141.977C403.625 142.169 403.057 142.266 402.396 142.266ZM402.903 140.391C403.549 140.391 404.101 140.263 404.56 140.008C405.023 139.753 405.375 139.419 405.614 139.008C405.859 138.591 405.981 138.146 405.981 137.672V136.125C405.898 136.208 405.737 136.286 405.497 136.359C405.263 136.427 404.994 136.487 404.692 136.539C404.39 136.586 404.096 136.63 403.81 136.672C403.523 136.708 403.284 136.74 403.091 136.766C402.638 136.823 402.224 136.919 401.849 137.055C401.479 137.19 401.182 137.385 400.958 137.641C400.739 137.891 400.63 138.224 400.63 138.641C400.63 139.219 400.843 139.656 401.271 139.953C401.698 140.245 402.242 140.391 402.903 140.391ZM411.429 142V130H413.765V135.031H414.89L418.851 130H421.741L417.093 135.836L421.796 142H418.897L415.28 137.203H413.765V142H411.429ZM423.61 142V130H425.946V135.031H427.071L431.032 130H433.923L429.274 135.836L433.978 142H431.079L427.462 137.203H425.946V142H423.61ZM439.284 142.266C438.524 142.266 437.836 142.125 437.222 141.844C436.607 141.557 436.12 141.143 435.761 140.602C435.407 140.06 435.229 139.396 435.229 138.609C435.229 137.932 435.36 137.375 435.62 136.937C435.881 136.5 436.232 136.154 436.675 135.898C437.118 135.643 437.612 135.451 438.159 135.32C438.706 135.19 439.263 135.091 439.831 135.023C440.55 134.94 441.133 134.872 441.581 134.82C442.029 134.763 442.354 134.672 442.558 134.547C442.761 134.422 442.862 134.219 442.862 133.937V133.883C442.862 133.201 442.67 132.672 442.284 132.297C441.904 131.922 441.336 131.734 440.581 131.734C439.795 131.734 439.175 131.909 438.722 132.258C438.274 132.602 437.964 132.984 437.792 133.406L435.597 132.906C435.857 132.177 436.237 131.589 436.737 131.141C437.243 130.687 437.823 130.359 438.479 130.156C439.136 129.948 439.826 129.844 440.55 129.844C441.029 129.844 441.537 129.901 442.073 130.016C442.615 130.125 443.12 130.328 443.589 130.625C444.063 130.922 444.451 131.346 444.753 131.898C445.055 132.445 445.206 133.156 445.206 134.031V142H442.925V140.359H442.831C442.68 140.661 442.453 140.958 442.151 141.25C441.849 141.542 441.461 141.784 440.987 141.977C440.513 142.169 439.946 142.266 439.284 142.266ZM439.792 140.391C440.438 140.391 440.99 140.263 441.448 140.008C441.912 139.753 442.263 139.419 442.503 139.008C442.748 138.591 442.87 138.146 442.87 137.672V136.125C442.787 136.208 442.625 136.286 442.386 136.359C442.151 136.427 441.883 136.487 441.581 136.539C441.279 136.586 440.985 136.63 440.698 136.672C440.412 136.708 440.172 136.74 439.979 136.766C439.526 136.823 439.112 136.919 438.737 137.055C438.368 137.19 438.071 137.385 437.847 137.641C437.628 137.891 437.519 138.224 437.519 138.641C437.519 139.219 437.732 139.656 438.159 139.953C438.586 140.245 439.131 140.391 439.792 140.391ZM449.364 146.5C449.015 146.5 448.698 146.471 448.411 146.414C448.125 146.362 447.911 146.305 447.771 146.242L448.333 144.328C448.76 144.443 449.14 144.492 449.474 144.477C449.807 144.461 450.101 144.336 450.356 144.102C450.617 143.867 450.846 143.484 451.044 142.953L451.333 142.156L446.942 130H449.442L452.481 139.312H452.606L455.646 130H458.153L453.208 143.602C452.979 144.227 452.687 144.755 452.333 145.188C451.979 145.625 451.557 145.953 451.067 146.172C450.578 146.391 450.01 146.5 449.364 146.5ZM468.481 134.992V137.016H461.981V134.992H468.481ZM462.638 130V142H460.349V130H462.638ZM470.114 130V142H467.833V130H470.114ZM471.751 132.016V130H481.876V132.016H477.962V142H475.681V132.016H471.751ZM487.28 142.266C486.52 142.266 485.832 142.125 485.218 141.844C484.603 141.557 484.116 141.143 483.757 140.602C483.403 140.06 483.226 139.396 483.226 138.609C483.226 137.932 483.356 137.375 483.616 136.937C483.877 136.5 484.228 136.154 484.671 135.898C485.114 135.643 485.608 135.451 486.155 135.32C486.702 135.19 487.259 135.091 487.827 135.023C488.546 134.94 489.129 134.872 489.577 134.82C490.025 134.763 490.351 134.672 490.554 134.547C490.757 134.422 490.858 134.219 490.858 133.937V133.883C490.858 133.201 490.666 132.672 490.28 132.297C489.9 131.922 489.332 131.734 488.577 131.734C487.791 131.734 487.171 131.909 486.718 132.258C486.27 132.602 485.96 132.984 485.788 133.406L483.593 132.906C483.853 132.177 484.233 131.589 484.733 131.141C485.239 130.687 485.819 130.359 486.476 130.156C487.132 129.948 487.822 129.844 488.546 129.844C489.025 129.844 489.533 129.901 490.069 130.016C490.611 130.125 491.116 130.328 491.585 130.625C492.059 130.922 492.447 131.346 492.749 131.898C493.051 132.445 493.202 133.156 493.202 134.031V142H490.921V140.359H490.827C490.676 140.661 490.45 140.958 490.147 141.25C489.845 141.542 489.457 141.784 488.983 141.977C488.509 142.169 487.942 142.266 487.28 142.266ZM487.788 140.391C488.434 140.391 488.986 140.263 489.444 140.008C489.908 139.753 490.259 139.419 490.499 139.008C490.744 138.591 490.866 138.146 490.866 137.672V136.125C490.783 136.208 490.621 136.286 490.382 136.359C490.147 136.427 489.879 136.487 489.577 136.539C489.275 136.586 488.981 136.63 488.694 136.672C488.408 136.708 488.168 136.74 487.976 136.766C487.522 136.823 487.108 136.919 486.733 137.055C486.364 137.19 486.067 137.385 485.843 137.641C485.624 137.891 485.515 138.224 485.515 138.641C485.515 139.219 485.728 139.656 486.155 139.953C486.582 140.245 487.127 140.391 487.788 140.391ZM497.853 142.148C497.425 142.148 497.058 141.997 496.751 141.695C496.444 141.388 496.29 141.018 496.29 140.586C496.29 140.159 496.444 139.794 496.751 139.492C497.058 139.185 497.425 139.031 497.853 139.031C498.28 139.031 498.647 139.185 498.954 139.492C499.261 139.794 499.415 140.159 499.415 140.586C499.415 140.872 499.342 141.135 499.196 141.375C499.056 141.609 498.868 141.797 498.634 141.937C498.399 142.078 498.139 142.148 497.853 142.148Z" fill="#9D9D9D"/>
<path d="M98.9141 198.273V215H96.3984V200.429H88.5249V215H86.0092V198.273H98.9141ZM107.862 215.253C106.686 215.253 105.659 214.984 104.782 214.445C103.906 213.906 103.225 213.151 102.741 212.182C102.256 211.213 102.014 210.08 102.014 208.784C102.014 207.483 102.256 206.345 102.741 205.37C103.225 204.396 103.906 203.639 104.782 203.1C105.659 202.561 106.686 202.291 107.862 202.291C109.038 202.291 110.064 202.561 110.941 203.1C111.818 203.639 112.498 204.396 112.983 205.37C113.467 206.345 113.71 207.483 113.71 208.784C113.71 210.08 113.467 211.213 112.983 212.182C112.498 213.151 111.818 213.906 110.941 214.445C110.064 214.984 109.038 215.253 107.862 215.253ZM107.87 213.203C108.632 213.203 109.264 213.002 109.765 212.599C110.266 212.196 110.636 211.659 110.876 210.99C111.121 210.32 111.243 209.582 111.243 208.776C111.243 207.976 111.121 207.241 110.876 206.571C110.636 205.896 110.266 205.354 109.765 204.946C109.264 204.537 108.632 204.333 107.87 204.333C107.102 204.333 106.465 204.537 105.959 204.946C105.458 205.354 105.085 205.896 104.84 206.571C104.6 207.241 104.48 207.976 104.48 208.776C104.48 209.582 104.6 210.32 104.84 210.99C105.085 211.659 105.458 212.196 105.959 212.599C106.465 213.002 107.102 213.203 107.87 213.203ZM126.506 202.455V215H124.121V202.455H126.506ZM125.469 208.278V210.385C125.093 210.538 124.696 210.674 124.277 210.794C123.857 210.908 123.416 210.998 122.953 211.063C122.491 211.129 122.009 211.161 121.508 211.161C119.956 211.161 118.723 210.783 117.808 210.026C116.893 209.264 116.436 208.098 116.436 206.53V202.43H118.812V206.53C118.812 207.124 118.921 207.606 119.139 207.976C119.357 208.346 119.667 208.618 120.07 208.793C120.473 208.967 120.952 209.054 121.508 209.054C122.243 209.054 122.921 208.986 123.541 208.85C124.168 208.708 124.81 208.518 125.469 208.278ZM128.199 204.562V202.455H138.784V204.562H134.692V215H132.307V204.562H128.199ZM144.434 215.278C143.639 215.278 142.92 215.131 142.278 214.837C141.635 214.537 141.126 214.104 140.751 213.538C140.38 212.972 140.195 212.277 140.195 211.455C140.195 210.747 140.331 210.165 140.604 209.707C140.876 209.25 141.243 208.888 141.706 208.621C142.169 208.354 142.686 208.153 143.258 208.017C143.83 207.881 144.412 207.777 145.006 207.706C145.757 207.619 146.367 207.548 146.835 207.494C147.304 207.434 147.644 207.339 147.856 207.208C148.069 207.077 148.175 206.865 148.175 206.571V206.514C148.175 205.801 147.974 205.248 147.571 204.856C147.173 204.464 146.58 204.268 145.79 204.268C144.968 204.268 144.32 204.45 143.846 204.815C143.378 205.174 143.054 205.575 142.874 206.016L140.579 205.493C140.851 204.731 141.249 204.115 141.772 203.647C142.3 203.173 142.907 202.83 143.593 202.618C144.279 202.4 145.001 202.291 145.757 202.291C146.258 202.291 146.789 202.351 147.35 202.471C147.916 202.585 148.445 202.798 148.935 203.108C149.43 203.418 149.836 203.862 150.152 204.439C150.467 205.011 150.625 205.754 150.625 206.669V215H148.24V213.285H148.142C147.984 213.601 147.748 213.911 147.432 214.216C147.116 214.521 146.71 214.774 146.215 214.975C145.719 215.177 145.126 215.278 144.434 215.278ZM144.965 213.317C145.64 213.317 146.217 213.184 146.697 212.917C147.181 212.65 147.549 212.302 147.799 211.872C148.055 211.436 148.183 210.971 148.183 210.475V208.858C148.096 208.945 147.927 209.027 147.677 209.103C147.432 209.174 147.151 209.236 146.835 209.291C146.52 209.34 146.212 209.386 145.913 209.43C145.613 209.468 145.363 209.5 145.161 209.528C144.687 209.588 144.255 209.688 143.862 209.83C143.476 209.971 143.166 210.176 142.931 210.442C142.703 210.704 142.588 211.052 142.588 211.488C142.588 212.092 142.812 212.55 143.258 212.86C143.705 213.165 144.274 213.317 144.965 213.317Z" fill="#9D9D9D"/>
<path d="M98.9141 347.273V364H96.3984V349.429H88.5249V364H86.0092V347.273H98.9141ZM106.228 364.278C105.433 364.278 104.714 364.131 104.072 363.837C103.429 363.537 102.92 363.104 102.545 362.538C102.174 361.972 101.989 361.277 101.989 360.455C101.989 359.747 102.125 359.165 102.398 358.707C102.67 358.25 103.037 357.888 103.5 357.621C103.963 357.354 104.48 357.153 105.052 357.017C105.624 356.881 106.206 356.777 106.8 356.706C107.551 356.619 108.161 356.548 108.629 356.494C109.098 356.434 109.438 356.339 109.65 356.208C109.863 356.077 109.969 355.865 109.969 355.571V355.514C109.969 354.801 109.767 354.248 109.365 353.856C108.967 353.464 108.374 353.268 107.584 353.268C106.762 353.268 106.114 353.45 105.64 353.815C105.172 354.174 104.848 354.575 104.668 355.016L102.373 354.493C102.645 353.731 103.043 353.115 103.566 352.647C104.094 352.173 104.701 351.83 105.387 351.618C106.073 351.4 106.794 351.291 107.551 351.291C108.052 351.291 108.583 351.351 109.144 351.471C109.71 351.585 110.238 351.798 110.729 352.108C111.224 352.418 111.63 352.862 111.945 353.439C112.261 354.011 112.419 354.754 112.419 355.669V364H110.034V362.285H109.936C109.778 362.601 109.541 362.911 109.226 363.216C108.91 363.521 108.504 363.774 108.009 363.975C107.513 364.177 106.92 364.278 106.228 364.278ZM106.759 362.317C107.434 362.317 108.011 362.184 108.491 361.917C108.975 361.65 109.343 361.302 109.593 360.872C109.849 360.436 109.977 359.971 109.977 359.475V357.858C109.89 357.945 109.721 358.027 109.471 358.103C109.226 358.174 108.945 358.236 108.629 358.291C108.314 358.34 108.006 358.386 107.706 358.43C107.407 358.468 107.157 358.5 106.955 358.528C106.481 358.588 106.048 358.688 105.656 358.83C105.27 358.971 104.959 359.176 104.725 359.442C104.497 359.704 104.382 360.052 104.382 360.488C104.382 361.092 104.606 361.55 105.052 361.86C105.499 362.165 106.068 362.317 106.759 362.317ZM115.672 368.705V351.455H118.057V353.488H118.261C118.403 353.227 118.607 352.925 118.874 352.582C119.14 352.239 119.511 351.939 119.984 351.683C120.458 351.422 121.084 351.291 121.863 351.291C122.876 351.291 123.78 351.547 124.575 352.059C125.37 352.571 125.993 353.309 126.445 354.272C126.902 355.236 127.131 356.396 127.131 357.752C127.131 359.108 126.905 360.27 126.453 361.239C126.001 362.203 125.381 362.946 124.591 363.469C123.801 363.986 122.9 364.245 121.888 364.245C121.125 364.245 120.502 364.117 120.017 363.861C119.538 363.605 119.162 363.306 118.89 362.963C118.618 362.62 118.408 362.315 118.261 362.048H118.114V368.705H115.672ZM118.065 357.727C118.065 358.609 118.193 359.383 118.449 360.047C118.705 360.711 119.075 361.231 119.56 361.607C120.044 361.977 120.638 362.162 121.34 362.162C122.07 362.162 122.68 361.969 123.17 361.582C123.66 361.19 124.03 360.659 124.281 359.99C124.537 359.32 124.665 358.566 124.665 357.727C124.665 356.9 124.539 356.156 124.289 355.498C124.044 354.839 123.674 354.319 123.178 353.938C122.688 353.556 122.075 353.366 121.34 353.366C120.632 353.366 120.033 353.548 119.543 353.913C119.059 354.278 118.691 354.787 118.441 355.44C118.19 356.094 118.065 356.856 118.065 357.727ZM135.152 364.253C133.976 364.253 132.949 363.984 132.073 363.445C131.196 362.906 130.515 362.151 130.031 361.182C129.546 360.213 129.304 359.08 129.304 357.784C129.304 356.483 129.546 355.345 130.031 354.37C130.515 353.396 131.196 352.639 132.073 352.1C132.949 351.561 133.976 351.291 135.152 351.291C136.328 351.291 137.354 351.561 138.231 352.1C139.108 352.639 139.788 353.396 140.273 354.37C140.757 355.345 141 356.483 141 357.784C141 359.08 140.757 360.213 140.273 361.182C139.788 362.151 139.108 362.906 138.231 363.445C137.354 363.984 136.328 364.253 135.152 364.253ZM135.16 362.203C135.922 362.203 136.554 362.002 137.055 361.599C137.556 361.196 137.926 360.659 138.166 359.99C138.411 359.32 138.533 358.582 138.533 357.776C138.533 356.976 138.411 356.241 138.166 355.571C137.926 354.896 137.556 354.354 137.055 353.946C136.554 353.537 135.922 353.333 135.16 353.333C134.392 353.333 133.755 353.537 133.249 353.946C132.748 354.354 132.375 354.896 132.13 355.571C131.89 356.241 131.77 356.976 131.77 357.776C131.77 358.582 131.89 359.32 132.13 359.99C132.375 360.659 132.748 361.196 133.249 361.599C133.755 362.002 134.392 362.203 135.16 362.203ZM142.737 364L142.729 361.885H143.178C143.527 361.885 143.818 361.811 144.052 361.664C144.292 361.512 144.488 361.256 144.64 360.896C144.793 360.537 144.91 360.041 144.992 359.41C145.073 358.773 145.133 357.972 145.171 357.009L145.392 351.455H154.148V364H151.754V353.562H147.654L147.458 357.825C147.409 358.86 147.303 359.764 147.14 360.537C146.982 361.31 146.75 361.955 146.445 362.473C146.141 362.984 145.749 363.368 145.269 363.624C144.79 363.875 144.208 364 143.521 364H142.737ZM159.242 355.767H162.885C164.42 355.767 165.602 356.148 166.43 356.911C167.257 357.673 167.671 358.656 167.671 359.859C167.671 360.643 167.486 361.348 167.116 361.974C166.745 362.601 166.204 363.096 165.49 363.461C164.777 363.82 163.909 364 162.885 364H157.404V351.455H159.797V361.893H162.885C163.587 361.893 164.164 361.71 164.616 361.346C165.068 360.975 165.294 360.504 165.294 359.933C165.294 359.328 165.068 358.835 164.616 358.454C164.164 358.068 163.587 357.874 162.885 357.874H159.242V355.767Z" fill="#9D9D9D"/>
<rect x="72" y="525" width="238" height="76" rx="15.03" fill="#7780FF"/>
<path d="M151.903 573V552.098H159.211C160.667 552.098 161.868 552.35 162.814 552.853C163.759 553.35 164.464 554.02 164.926 554.864C165.389 555.701 165.62 556.63 165.62 557.65C165.62 558.548 165.46 559.29 165.141 559.875C164.828 560.46 164.413 560.923 163.895 561.263C163.385 561.603 162.831 561.855 162.232 562.018V562.223C162.871 562.263 163.514 562.488 164.161 562.896C164.807 563.304 165.348 563.889 165.784 564.652C166.219 565.414 166.437 566.346 166.437 567.448C166.437 568.496 166.199 569.438 165.722 570.275C165.246 571.112 164.494 571.775 163.467 572.265C162.439 572.755 161.102 573 159.456 573H151.903ZM154.434 570.755H159.456C161.109 570.755 162.283 570.435 162.977 569.795C163.678 569.149 164.028 568.366 164.028 567.448C164.028 566.74 163.848 566.087 163.487 565.488C163.127 564.883 162.613 564.4 161.946 564.039C161.279 563.672 160.49 563.488 159.578 563.488H154.434V570.755ZM154.434 561.284H159.129C159.891 561.284 160.578 561.134 161.191 560.834C161.81 560.535 162.3 560.113 162.66 559.569C163.028 559.025 163.212 558.385 163.212 557.65C163.212 556.732 162.892 555.953 162.252 555.313C161.613 554.667 160.599 554.343 159.211 554.343H154.434V561.284ZM176.638 573.327C175.222 573.327 173.981 572.99 172.912 572.316C171.851 571.643 171.021 570.7 170.422 569.489C169.83 568.278 169.534 566.863 169.534 565.243C169.534 563.611 169.83 562.185 170.422 560.967C171.021 559.749 171.851 558.804 172.912 558.13C173.981 557.456 175.222 557.12 176.638 557.12C178.053 557.12 179.291 557.456 180.353 558.13C181.421 558.804 182.251 559.749 182.843 560.967C183.442 562.185 183.741 563.611 183.741 565.243C183.741 566.863 183.442 568.278 182.843 569.489C182.251 570.7 181.421 571.643 180.353 572.316C179.291 572.99 178.053 573.327 176.638 573.327ZM176.638 571.163C177.713 571.163 178.597 570.887 179.291 570.336C179.985 569.785 180.499 569.06 180.832 568.162C181.166 567.264 181.332 566.291 181.332 565.243C181.332 564.196 181.166 563.219 180.832 562.314C180.499 561.409 179.985 560.678 179.291 560.12C178.597 559.562 177.713 559.283 176.638 559.283C175.563 559.283 174.678 559.562 173.984 560.12C173.29 560.678 172.776 561.409 172.443 562.314C172.11 563.219 171.943 564.196 171.943 565.243C171.943 566.291 172.11 567.264 172.443 568.162C172.776 569.06 173.29 569.785 173.984 570.336C174.678 570.887 175.563 571.163 176.638 571.163ZM189.826 569.448L197.379 557.324H200.155V573H197.746V560.875L190.234 573H187.418V557.324H189.826V569.448ZM195.787 552.098H198.032C198.032 553.2 197.651 554.102 196.889 554.803C196.127 555.504 195.092 555.854 193.786 555.854C192.5 555.854 191.476 555.504 190.714 554.803C189.959 554.102 189.581 553.2 189.581 552.098H191.827C191.827 552.629 191.973 553.095 192.265 553.496C192.565 553.898 193.072 554.099 193.786 554.099C194.501 554.099 195.011 553.898 195.317 553.496C195.63 553.095 195.787 552.629 195.787 552.098ZM202.433 559.569V557.324H215.17V559.569H210.026V573H207.618V559.569H202.433ZM221.092 569.448L228.645 557.324H231.421V573H229.012V560.875L221.5 573H218.684V557.324H221.092V569.448Z" fill="#F9F5F5"/>
<rect x="316.105" y="526.105" width="240.79" height="73.79" rx="13.925" fill="#FEFEFE" stroke="#9D9D9D" stroke-width="2.21"/>
<path d="M338.946 573V552.098H346.254C347.71 552.098 348.911 552.35 349.856 552.853C350.802 553.35 351.506 554.02 351.969 554.864C352.432 555.701 352.663 556.63 352.663 557.65C352.663 558.548 352.503 559.29 352.183 559.875C351.87 560.46 351.455 560.923 350.938 561.263C350.428 561.603 349.873 561.855 349.275 562.018V562.223C349.914 562.263 350.557 562.488 351.204 562.896C351.85 563.304 352.391 563.889 352.826 564.652C353.262 565.414 353.48 566.346 353.48 567.448C353.48 568.496 353.241 569.438 352.765 570.275C352.289 571.112 351.537 571.775 350.51 572.265C349.482 572.755 348.145 573 346.499 573H338.946ZM341.477 570.755H346.499C348.152 570.755 349.326 570.435 350.02 569.795C350.721 569.149 351.071 568.366 351.071 567.448C351.071 566.74 350.891 566.087 350.53 565.488C350.169 564.883 349.656 564.4 348.989 564.039C348.322 563.672 347.533 563.488 346.621 563.488H341.477V570.755ZM341.477 561.284H346.172C346.934 561.284 347.621 561.134 348.234 560.834C348.853 560.535 349.343 560.113 349.703 559.569C350.071 559.025 350.254 558.385 350.254 557.65C350.254 556.732 349.935 555.953 349.295 555.313C348.656 554.667 347.642 554.343 346.254 554.343H341.477V561.284ZM363.68 573.327C362.265 573.327 361.023 572.99 359.955 572.316C358.894 571.643 358.064 570.7 357.465 569.489C356.873 568.278 356.577 566.863 356.577 565.243C356.577 563.611 356.873 562.185 357.465 560.967C358.064 559.749 358.894 558.804 359.955 558.13C361.023 557.456 362.265 557.12 363.68 557.12C365.096 557.12 366.334 557.456 367.395 558.13C368.464 558.804 369.294 559.749 369.886 560.967C370.484 562.185 370.784 563.611 370.784 565.243C370.784 566.863 370.484 568.278 369.886 569.489C369.294 570.7 368.464 571.643 367.395 572.316C366.334 572.99 365.096 573.327 363.68 573.327ZM363.68 571.163C364.755 571.163 365.64 570.887 366.334 570.336C367.028 569.785 367.542 569.06 367.875 568.162C368.208 567.264 368.375 566.291 368.375 565.243C368.375 564.196 368.208 563.219 367.875 562.314C367.542 561.409 367.028 560.678 366.334 560.12C365.64 559.562 364.755 559.283 363.68 559.283C362.605 559.283 361.721 559.562 361.027 560.12C360.333 560.678 359.819 561.409 359.486 562.314C359.152 563.219 358.986 564.196 358.986 565.243C358.986 566.291 359.152 567.264 359.486 568.162C359.819 569.06 360.333 569.785 361.027 570.336C361.721 570.887 362.605 571.163 363.68 571.163ZM376.869 569.448L384.422 557.324H387.198V573H384.789V560.875L377.277 573H374.46V557.324H376.869V569.448ZM382.829 552.098H385.075C385.075 553.2 384.694 554.102 383.932 554.803C383.17 555.504 382.135 555.854 380.829 555.854C379.543 555.854 378.519 555.504 377.757 554.803C377.002 554.102 376.624 553.2 376.624 552.098H378.869C378.869 552.629 379.016 553.095 379.308 553.496C379.608 553.898 380.115 554.099 380.829 554.099C381.543 554.099 382.054 553.898 382.36 553.496C382.673 553.095 382.829 552.629 382.829 552.098ZM389.476 559.569V557.324H402.213V559.569H397.069V573H394.661V559.569H389.476ZM408.135 569.448L415.687 557.324H418.464V573H416.055V560.875L408.543 573H405.726V557.324H408.135V569.448ZM430.958 573V557.324H443.287V573H440.878V559.569H433.367V573H430.958ZM454.054 573.327C452.639 573.327 451.397 572.99 450.329 572.316C449.268 571.643 448.438 570.7 447.839 569.489C447.247 568.278 446.951 566.863 446.951 565.243C446.951 563.611 447.247 562.185 447.839 560.967C448.438 559.749 449.268 558.804 450.329 558.13C451.397 557.456 452.639 557.12 454.054 557.12C455.469 557.12 456.708 557.456 457.769 558.13C458.837 558.804 459.668 559.749 460.259 560.967C460.858 562.185 461.158 563.611 461.158 565.243C461.158 566.863 460.858 568.278 460.259 569.489C459.668 570.7 458.837 571.643 457.769 572.316C456.708 572.99 455.469 573.327 454.054 573.327ZM454.054 571.163C455.129 571.163 456.014 570.887 456.708 570.336C457.402 569.785 457.916 569.06 458.249 568.162C458.582 567.264 458.749 566.291 458.749 565.243C458.749 564.196 458.582 563.219 458.249 562.314C457.916 561.409 457.402 560.678 456.708 560.12C456.014 559.562 455.129 559.283 454.054 559.283C452.979 559.283 452.095 559.562 451.401 560.12C450.707 560.678 450.193 561.409 449.86 562.314C449.526 563.219 449.36 564.196 449.36 565.243C449.36 566.291 449.526 567.264 449.86 568.162C450.193 569.06 450.707 569.785 451.401 570.336C452.095 570.887 452.979 571.163 454.054 571.163ZM472.917 573V557.324H475.326V564.141H476.918L482.552 557.324H485.654L479.327 564.876L485.736 573H482.634L477.49 566.387H475.326V573H472.917ZM494.077 573.327C492.662 573.327 491.42 572.99 490.352 572.316C489.29 571.643 488.46 570.7 487.862 569.489C487.27 568.278 486.974 566.863 486.974 565.243C486.974 563.611 487.27 562.185 487.862 560.967C488.46 559.749 489.29 558.804 490.352 558.13C491.42 557.456 492.662 557.12 494.077 557.12C495.492 557.12 496.73 557.456 497.792 558.13C498.86 558.804 499.69 559.749 500.282 560.967C500.881 562.185 501.18 563.611 501.18 565.243C501.18 566.863 500.881 568.278 500.282 569.489C499.69 570.7 498.86 571.643 497.792 572.316C496.73 572.99 495.492 573.327 494.077 573.327ZM494.077 571.163C495.152 571.163 496.036 570.887 496.73 570.336C497.425 569.785 497.938 569.06 498.272 568.162C498.605 567.264 498.772 566.291 498.772 565.243C498.772 564.196 498.605 563.219 498.272 562.314C497.938 561.409 497.425 560.678 496.73 560.12C496.036 559.562 495.152 559.283 494.077 559.283C493.002 559.283 492.117 559.562 491.423 560.12C490.729 560.678 490.216 561.409 489.882 562.314C489.549 563.219 489.382 564.196 489.382 565.243C489.382 566.291 489.549 567.264 489.882 568.162C490.216 569.06 490.729 569.785 491.423 570.336C492.117 570.887 493.002 571.163 494.077 571.163ZM503.183 577.491V570.755H504.49C504.809 570.421 505.085 570.061 505.316 569.673C505.548 569.285 505.748 568.826 505.918 568.295C506.095 567.758 506.245 567.104 506.367 566.336C506.49 565.56 506.599 564.624 506.694 563.529L507.225 557.324H517.186V570.755H519.594V577.491H517.186V573H505.592V577.491H503.183ZM507.225 570.755H514.777V559.569H509.47L509.062 563.529C508.892 565.169 508.681 566.601 508.429 567.826C508.177 569.05 507.776 570.027 507.225 570.755ZM524.343 578.879C523.935 578.879 523.57 578.845 523.251 578.777C522.931 578.715 522.71 578.654 522.587 578.593L523.2 576.47C523.785 576.62 524.302 576.674 524.751 576.633C525.2 576.592 525.598 576.392 525.945 576.031C526.299 575.677 526.622 575.102 526.915 574.306L527.364 573.082L521.567 557.324H524.179L528.507 569.816H528.67L532.997 557.324H535.61L528.956 575.286C528.656 576.096 528.286 576.766 527.843 577.297C527.401 577.834 526.887 578.232 526.302 578.491C525.724 578.749 525.071 578.879 524.343 578.879Z" fill="#9D9D9D"/>
</g>
<defs>
<filter id="filter0_d_101_923" x="0" y="0" width="629" height="675" filterUnits="userSpaceOnUse" color-interpolation-filters="sRGB">
<feFlood flood-opacity="0" result="BackgroundImageFix"/>
<feColorMatrix in="SourceAlpha" type="matrix" values="0 0 0 0 0 0 0 0 0 0 0 0 0 0 0 0 0 0 127 0" result="hardAlpha"/>
<feOffset dy="4"/>
<feGaussianBlur stdDeviation="2"/>
<feComposite in2="hardAlpha" operator="out"/>
<feColorMatrix type="matrix" values="0 0 0 0 0 0 0 0 0 0 0 0 0 0 0 0 0 0 0.25 0"/>
<feBlend mode="normal" in2="BackgroundImageFix" result="effect1_dropShadow_101_923"/>
<feBlend mode="normal" in="SourceGraphic" in2="effect1_dropShadow_101_923" result="shape"/>
</filter>
</defs>
</svg>
