<svg width="30" height="30" viewBox="0 0 30 30" fill="none" xmlns="http://www.w3.org/2000/svg">
<path d="M23 25L22.6456 25.3527C22.7884 25.4962 23.0037 25.5394 23.1908 25.4622C23.3779 25.3849 23.5 25.2024 23.5 25V11.7V11.6831C23.5 10.9085 23.5 10.1359 23.422 9.42664C23.3432 8.71052 23.1816 8.01869 22.8322 7.41809C22.1018 6.16238 20.6781 5.5 18.2 5.5H11.8C9.32196 5.5 7.89826 6.16238 7.16783 7.41809C6.81847 8.01869 6.65677 8.71051 6.57801 9.42664C6.49999 10.1359 6.5 10.9086 6.5 11.6833V11.7V25C6.5 25.2024 6.62208 25.3849 6.80921 25.4622C6.99634 25.5394 7.21159 25.4962 7.3544 25.3527L7 25L7.35445 25.3527L7.35466 25.3524L7.35556 25.3515L7.35921 25.3479L7.37388 25.3332L7.43162 25.2754C7.48234 25.2247 7.557 25.1502 7.65247 25.0553C7.84341 24.8655 8.11755 24.5942 8.44991 24.2686C9.11486 23.6172 10.0117 22.7494 10.9411 21.8822C11.8719 21.0138 12.8291 20.1518 13.6162 19.5092C14.0108 19.187 14.3534 18.9276 14.6234 18.7513C14.7589 18.6628 14.8661 18.6019 14.9458 18.5647C14.969 18.5539 14.9869 18.5465 15 18.5415C15.0131 18.5465 15.031 18.5539 15.0542 18.5647C15.1339 18.6019 15.2411 18.6628 15.3766 18.7513C15.6466 18.9276 15.9892 19.187 16.3838 19.5092C17.1709 20.1518 18.1281 21.0138 19.0589 21.8822C19.9883 22.7494 20.8851 23.6172 21.5501 24.2686C21.8824 24.5942 22.1566 24.8655 22.3475 25.0553C22.443 25.1502 22.5177 25.2247 22.5684 25.2754L22.6261 25.3332L22.6408 25.3479L22.6444 25.3515L22.6453 25.3524L22.6455 25.3527L23 25Z" fill="#9B9CA6" stroke="#9B9CA6" stroke-linejoin="round"/>
</svg>
