<svg width="40" height="38" viewBox="0 0 40 38" fill="none" xmlns="http://www.w3.org/2000/svg">
<path fill-rule="evenodd" clip-rule="evenodd" d="M33.1699 2.70169C32.4555 3.41823 31.4865 3.82077 30.4762 3.82077H27.9379C28.9555 3.85874 29.9591 4.07818 30.9015 4.46967C31.9421 4.90199 32.8877 5.53566 33.6842 6.33449C34.4806 7.13333 35.1124 8.08168 35.5435 9.12541C35.9745 10.1691 36.1964 11.2878 36.1964 12.4175C36.1964 13.4354 36.0163 14.4442 35.6654 15.3974C34.6776 14.5503 33.5614 13.8631 32.357 13.3627C30.8549 12.7387 29.2449 12.4175 27.619 12.4175C26.8061 12.4175 26.1599 12.5781 25.4088 12.8901C24.6577 13.2021 23.9753 13.6595 23.4005 14.236C22.8256 14.8125 22.3696 15.497 22.0585 16.2503C21.7474 17.0036 21.5873 17.8109 21.5873 18.6263C21.5873 19.4416 21.7474 20.249 22.0585 21.0022C22.3696 21.7555 22.8256 22.44 23.4005 23.0165C23.9753 23.593 24.6577 24.0504 25.4088 24.3624C26.1598 24.6744 26.8061 24.835 27.619 24.835C29.2449 24.835 30.8549 24.5138 32.357 23.8898C33.5614 23.3894 34.6776 22.7022 35.6654 21.8551C36.0163 22.8083 36.1964 23.8172 36.1964 24.835C36.1964 27.1166 35.2927 29.3047 33.6842 30.918C32.0756 32.5313 29.8939 33.4377 27.619 33.4377C25.3442 33.4377 23.1625 32.5313 21.5539 30.918C20.0207 29.3803 19.1279 27.3204 19.0476 25.155V33.7955C21.3505 36.0116 24.421 37.2525 27.619 37.2525C30.9027 37.2525 34.0518 35.9443 36.3737 33.6155C38.6956 31.2868 40 28.1284 40 24.835C40 23.2043 39.6798 21.5896 39.0576 20.083C38.8503 19.5812 38.6109 19.0947 38.3413 18.6263C38.6109 18.1579 38.8503 17.6713 39.0576 17.1695C39.6798 15.6629 40 14.0482 40 12.4175C40 10.7868 39.6798 9.1721 39.0576 7.66554C38.4354 6.15897 37.5234 4.79008 36.3737 3.63701C35.6275 2.88855 34.7905 2.24054 33.8843 1.70726C33.7027 2.07178 33.4626 2.40816 33.1699 2.70169ZM27.619 16.2323C28.7454 16.2323 29.8608 16.4548 30.9015 16.8872C31.8869 17.2966 32.7871 17.8865 33.5561 18.6263C32.7871 19.366 31.8869 19.956 30.9015 20.3654C29.8608 20.7977 28.7454 21.0202 27.619 21.0202C27.3053 21.0202 27.1534 20.9605 26.8635 20.8401C26.5736 20.7196 26.3102 20.5431 26.0884 20.3206C25.8665 20.0981 25.6906 19.834 25.5705 19.5432C25.4504 19.2525 25.3886 18.9409 25.3886 18.6263C25.3886 18.3116 25.4504 18 25.5705 17.7093C25.6906 17.4186 25.8665 17.1544 26.0884 16.9319C26.3102 16.7094 26.5736 16.5329 26.8635 16.4125C27.1534 16.292 27.3053 16.2323 27.619 16.2323Z" fill="#87A8CB"/>
<path d="M3.80952 3.03648e-07C2.79918 3.92236e-07 1.83021 0.402544 1.11578 1.11908C0.40136 1.83561 -8.83275e-08 2.80744 0 3.82077H15.2381V12.412C15.2388 10.7832 15.559 9.1704 16.1805 7.66553C16.8027 6.15897 17.7147 4.79008 18.8644 3.637C20.0141 2.48393 21.3789 1.56926 22.8811 0.945226C24.3832 0.321188 25.9932 -2.13839e-07 27.619 0L3.80952 3.03648e-07Z" fill="#87A8CB"/>
<path d="M15.2381 37.2525H19.0476L19.046 33.7939L19.0476 33.7955V25.155C19.0437 25.0486 19.0417 24.9419 19.0417 24.835L19.0476 12.4175L19.0476 3.82077H27.9379H30.4762C31.4865 3.82077 32.4555 3.41823 33.1699 2.70169C33.4626 2.40816 33.7027 2.07178 33.8843 1.70726C33.3943 1.41896 32.8841 1.1642 32.357 0.945227C30.8549 0.321189 29.2449 2.13839e-07 27.619 0C25.9932 -2.13839e-07 24.3832 0.321188 22.8811 0.945226C21.3789 1.56926 20.0141 2.48393 18.8644 3.637C17.7147 4.79008 16.8027 6.15897 16.1805 7.66553C15.559 9.1704 15.2388 10.7832 15.2381 12.412L15.2381 12.4175L15.2381 37.2525Z" fill="#87A8CB"/>
</svg>
